<?xml version="1.0" encoding="utf-8"?>
<!-- Generator: Adobe Illustrator 23.0.1, SVG Export Plug-In . SVG Version: 6.00 Build 0)  -->
<svg version="1.1" id="Capa_1" xmlns="http://www.w3.org/2000/svg" xmlns:xlink="http://www.w3.org/1999/xlink" x="0px" y="0px"
	 viewBox="0 0 300 300" style="enable-background:new 0 0 300 300;" xml:space="preserve">
<style type="text/css">
	.st0{display:none;fill:url(#SVGID_1_);}
	.st1{display:none;}
	.st2{display:inline;fill:url(#SVGID_2_);}
	.st3{display:inline;fill:url(#SVGID_3_);}
	.st4{display:inline;fill:url(#SVGID_4_);}
	.st5{display:none;fill:url(#SVGID_5_);}
	.st6{fill:url(#SVGID_6_);}
	.st7{fill:#E3CBBC;}
</style>
<radialGradient id="SVGID_1_" cx="177.265" cy="96.1673" r="172.0948" gradientUnits="userSpaceOnUse">
	<stop  offset="0" style="stop-color:#F2935A"/>
	<stop  offset="1" style="stop-color:#9C4511"/>
</radialGradient>
<circle class="st0" cx="149.63" cy="151.63" r="148.37"/>
<g class="st1">
	<radialGradient id="SVGID_2_" cx="175.6291" cy="96.5352" r="165.8742" gradientUnits="userSpaceOnUse">
		<stop  offset="0" style="stop-color:#5AB0F2"/>
		<stop  offset="1" style="stop-color:#114D9C"/>
	</radialGradient>
	<circle class="st2" cx="148.99" cy="149.99" r="143.01"/>
	<radialGradient id="SVGID_3_" cx="198.9024" cy="80.9026" r="170.9649" gradientUnits="userSpaceOnUse">
		<stop  offset="0" style="stop-color:#9AFA87"/>
		<stop  offset="1" style="stop-color:#34A42D"/>
	</radialGradient>
	<path class="st3" d="M199.21,172.77c-8.9-5.52-30.08-25.16-38.36-29.77c-8.29-4.6-20.25-3.99-27.01-7.98
		c-6.75-3.99-16.88-6.75-19.95-13.2c-3.07-6.45,0-21.79-5.22-24.24c-5.22-2.46-20.25,7.67-25.47,5.83
		c-5.22-1.84-6.75-8.59-5.83-12.89c0.92-4.3,0.61-15.04,8.9-13.2c8.29,1.84,29.16,9.82,42.04,3.38
		c12.89-6.45,25.16-24.55,19.03-42.96c-4.93-14.78-26.23-19.48-39.38-24.71C83.99,20.19,62.7,33.5,45.83,51.1
		c-0.31,11.59-0.12,36.05,6.08,47.09c8.29,14.73,25.16,11.97,36.83,18.72c11.66,6.75,6.75,7.37,16.57,11.97
		c9.82,4.6,15.96,5.52,16.88,7.98c0.92,2.46-11.36,11.05-11.97,25.47c-0.61,14.42-0.52,29.15,12.02,39.9
		c12.53,10.74,11.61,19.64,6.4,34.37c-5.22,14.73-7.37,33.14-2.46,37.13c4.91,3.99,11.36,2.15,11.66-4.6
		c0.31-6.75,2.46-10.74,12.28-14.12c9.82-3.38,12.58-2.03,15.96-10.07c3.38-8.04,12.58-22.46,22.1-31.67
		c9.51-9.21,18.11-18.11,18.72-25.16C207.5,181.05,208.11,178.29,199.21,172.77z"/>
	<radialGradient id="SVGID_4_" cx="282.4324" cy="60.9818" r="60.2079" gradientUnits="userSpaceOnUse">
		<stop  offset="0" style="stop-color:#9AFA87"/>
		<stop  offset="1" style="stop-color:#34A42D"/>
	</radialGradient>
	<path class="st4" d="M236.55,37.07c-0.54,7.39-0.62,13.36-3.68,17.03c-4.09,4.91,7.77,17.2,15.96,23.74
		c8.19,6.54,15.15,8.59,18.01,20.46c2.86,11.86-9.42,20.04-6.96,25.37c2.46,5.32,12.28,10.22,17.19,0
		c2.44-5.07,5.38-11.77,8.1-17.32C276.26,78.56,259.08,54.57,236.55,37.07z"/>
</g>
<radialGradient id="SVGID_5_" cx="178.4172" cy="100.1183" r="167.6017" gradientUnits="userSpaceOnUse">
	<stop  offset="0" style="stop-color:#F25F5A"/>
	<stop  offset="1" style="stop-color:#9C1D11"/>
</radialGradient>
<circle class="st5" cx="151.5" cy="154.13" r="144.5"/>
<g>
	<radialGradient id="SVGID_6_" cx="176.4515" cy="98.9239" r="164.7018" gradientUnits="userSpaceOnUse">
		<stop  offset="0" style="stop-color:#F7C9AD"/>
		<stop  offset="1" style="stop-color:#A16847"/>
	</radialGradient>
	<circle class="st6" cx="150" cy="152" r="142"/>
	<g>
		<path class="st7" d="M107.63,50.51c28.8,0,28.8-5.95,57.6-5.95c28.81,0,28.81,7.52,57.62,7.52c13.94,0,21.12,0.04,28.1,0.09
			c-12.65-12.78-27.7-23.15-44.43-30.41c-14.11,0.97-19.32,3.04-41.35,3.04c-28.81,0-28.81,0.03-57.61,0.03
			c-8.09,0-13.87-0.36-18.69-0.85c-11.65,5.57-22.41,12.63-32.03,21.03C78.97,45.82,81.32,50.51,107.63,50.51z"/>
		<path class="st7" d="M50.01,89.53c28.81,0,28.81-3.53,57.62-3.53c28.8,0,28.8,9.32,57.6,9.32c28.81,0,28.81-6.72,57.62-6.72
			c26.79,0,28.69-3.77,52.01-4.3c-5.95-10.96-13.41-20.97-21.92-29.94c-7.69-0.66-14.87-1.36-30.17-1.36
			c-28.8,0-28.8,2.02-57.6,2.02c-28.81,0-28.81-1.02-57.61-1.02c-28.81,0-28.81,3.43-57.62,3.43c-2.03,0-3.89-0.01-5.66-0.01
			c-9.33,10.42-17.13,22.2-23.08,35.05C28.41,91.01,35.61,89.53,50.01,89.53z"/>
		<path class="st7" d="M222.77,127.65c-28.8,0-28.8-0.96-57.6-0.96c-28.81,0-28.81-2.68-57.61-2.68c-28.81,0-28.81,9.54-57.62,9.54
			c-21.11,0-26.78-4.2-39.62-6.44C8.88,135.2,8,143.49,8,152c0,1.17,0.15,2.3,0.18,3.45c14.46-0.05,19.56-0.15,41.83-0.15
			c28.81,0,28.81,0.58,57.62,0.58c28.8,0,28.8-4.82,57.6-4.82c28.81,0,28.81-5.36,57.62-5.36c28.8,0,28.8,5.81,57.6,5.81
			c4.5,0,8.23,0.11,11.54,0.3c-0.01-8.85-0.93-17.48-2.49-25.88c-2.71-0.09-5.7-0.14-9.12-0.14
			C251.58,125.79,251.58,127.65,222.77,127.65z"/>
		<path class="st7" d="M257.6,244.5c-9.83,0.11-16.52,0.28-34.84,0.28c-28.8,0-28.8,6.38-57.6,6.38c-28.81,0-28.81-6.46-57.61-6.46
			c-28.81,0-28.81,6.54-57.62,6.54c-0.5,0-0.93,0-1.42,0c11.74,12.01,25.63,21.84,41,29.09c4.71,0.47,10.35,0.8,18.11,0.8
			c28.8,0,28.8-1.22,57.6-1.22c28.52,0,28.85-5.59,56.82-5.71C235.48,266.29,247.49,256.26,257.6,244.5z"/>
		<path class="st7" d="M107.63,232.2c28.8,0,28.8,7.81,57.6,7.81c28.81,0,28.81,0.41,57.62,0.41c21.28,0,26.85-1.55,39.93-2.36
			c1.7-2.23,3.45-4.41,5.02-6.74c-17.03-1.09-21.19-4.26-45.03-4.26c-28.8,0-28.8-1.6-57.6-1.6c-28.81,0-28.81,4.42-57.61,4.42
			c-28.81,0-28.81,3.04-57.62,3.04c-7.45,0-12.95-0.54-17.54-1.33c1.73,2.55,3.63,4.96,5.52,7.38c3.44,0.15,7.34,0.24,12.09,0.24
			C78.82,239.22,78.82,232.2,107.63,232.2z"/>
		<path class="st7" d="M107.63,169.89c28.8,0,28.8,2.81,57.6,2.81c28.81,0,28.81-2.46,57.62-2.46c28.8,0,28.8,2.6,57.6,2.6
			c3.71,0,6.93,0.11,9.81,0.3c0.05-0.28,0.09-0.57,0.13-0.85c-2.92,0.02-6.2,0.03-10,0.03c-28.81,0-28.81-3.67-57.62-3.67
			c-28.8,0-28.8,0.28-57.6,0.28c-28.81,0-28.81-4.64-57.61-4.64c-28.81,0-28.81,1.1-57.62,1.1c-21.78,0-27.1,2.34-40.85,3.48
			c0.06,0.44,0.14,0.88,0.2,1.31c13.65,2.68,19,8.1,40.72,8.1C78.82,178.27,78.82,169.89,107.63,169.89z"/>
		<path class="st7" d="M107.63,215.06c28.8,0,28.8,1.95,57.6,1.95c28.81,0,28.81-6.66,57.62-6.66c27.73,0,28.84,3.75,54.57,4.03
			c3.68-7.51,6.75-15.36,9.07-23.53c-1.9,0.07-3.9,0.14-6.1,0.14c-28.81,0-28.81,1.37-57.62,1.37c-28.8,0-28.8-0.45-57.6-0.45
			c-28.81,0-28.81-6.13-57.61-6.13c-28.81,0-28.81-2.78-57.62-2.78c-19.97,0-26.11,2.09-37.58,3.37c2.24,9.02,5.33,17.68,9.21,25.92
			c7.08-0.02,14.28-0.04,28.43-0.04C78.82,212.26,78.82,215.06,107.63,215.06z"/>
		<path class="st7" d="M165.17,100.76c-28.81,0-28.81-3.8-57.61-3.8c-28.81,0-28.81,5.09-57.62,5.09c-16.38,0-23.45-1.38-31.79-2.58
			c-1.59,3.97-3.02,8.02-4.25,12.16c10.55,1.7,17.01,4.22,36.1,4.22c28.81,0,28.81,2.48,57.62,2.48c28.8,0,28.8-5.69,57.6-5.69
			c28.81,0,28.81,2.82,57.62,2.82c28.8,0,28.8-2.26,57.6-2.26c2.19,0,4.18,0.02,6.07,0.06c-1.62-5.73-3.49-11.36-5.78-16.77
			c-0.12,0-0.23-0.01-0.35-0.01c-28.81,0-28.81,8.95-57.62,8.95C193.96,105.44,193.96,100.76,165.17,100.76z"/>
	</g>
</g>
</svg>
