<?xml version="1.0" encoding="utf-8"?>
<!-- Generator: Adobe Illustrator 23.0.1, SVG Export Plug-In . SVG Version: 6.00 Build 0)  -->
<svg version="1.1" id="Capa_1" xmlns="http://www.w3.org/2000/svg" xmlns:xlink="http://www.w3.org/1999/xlink" x="0px" y="0px"
	 viewBox="0 0 500 500" style="enable-background:new 0 0 500 500;" xml:space="preserve">
<style type="text/css">
	.st0{fill:none;}
	.st1{fill:#161515;}
	.st2{fill:#C6A054;}
	.st3{fill:#FFFFFF;}
	.st4{opacity:0.6;fill:#FFF0CC;}
</style>
<g>
	<path class="st0" d="M192.5,338.95c0.02,0.01,0.68,0.4,1.78,1.02C193.63,339.6,193.07,339.28,192.5,338.95z"/>
	<path class="st1" d="M192.49,338.94L192.49,338.94c0,0,0.01,0.01,0.01,0.01L192.49,338.94z"/>
	<path class="st2" d="M171.06,324.32l-2.08-2.49C169.59,322.64,170.27,323.47,171.06,324.32z"/>
	<path class="st3" d="M395.68,20c1.42,13.88,0.31,27.96-1.3,39.08c-0.36,2.61-0.78,5.04-1.17,7.28h0.15
		c-0.65,3.93-1.54,8.06-2.69,12.04c-0.4,1.56-0.66,2.44-0.66,2.44l-0.13,0.03c-0.3,0.97-0.64,1.94-1,2.88
		c-4.58,11.74-11.33,22.99-20.04,33.45l-1.25,1.64c-4.35,6.26-14.99,15.26-27.32,23.3v-0.17l-46.35,26.92v0.21
		c-17.11,9.79-35.74,20.41-47.34,27.04c-11.62-6.63-30.23-17.25-47.33-27.04v-1.32v-46.37v-21.15v-33.9v-1.93h47.33h47.34v1.93v33.9
		v21.15v8.88l46.35-28.26V90.9V66.36V20h-93.69h-93.7v46.36v24.53v30.52v1.81v17.03c-26.35-19.14-39.99-39.35-41.29-41.33
		c-2.82-4.93-5.28-9.97-7.27-15.08c-0.36-0.97-0.72-1.95-1.05-2.96l-0.13-0.04c0,0-0.28-0.95-0.7-2.65
		c-1.11-3.86-1.97-7.91-2.62-11.83h0.12c-0.38-2.15-0.77-4.51-1.12-7.01C97.2,48.18,96.05,33.99,97.49,20H51.48l0,0v287.32
		c0.02,3.06,0.53,30.47,9.63,54.1c6.29,16.11,15.37,31.42,27,45.52c14.01,19.55,41.55,36.43,49.76,41.21
		c11.3,6.55,59.57,34.11,83.6,47.85v-53.39c-23.94-13.68-52.21-29.86-60.31-34.56c-15.66-9.09-30.29-20.77-35.57-28.4l-1.25-1.65
		c-8.71-10.45-15.46-21.72-20-33.36c-5.11-13.24-6.42-31.77-6.51-37.53v-149.7c14.49,14.51,33.47,26.11,40.04,29.93
		c2.9,1.7,8.28,4.77,15.03,8.65v0.06l46.36,26.82v-0.37c18.59,10.62,34.38,19.63,35.84,20.46l11.49,6.56l11.49-6.56
		c1.47-0.84,17.24-9.84,35.85-20.46v40.6v42.23c-0.08,1.25-0.27,2.91-0.48,4.19c-0.54,0.93-1.35,2.12-2.53,3.54l-1.33,1.59
		c-1.73,1.33-4.75,3.5-8.5,5.69c-4.52,2.62-15.9,9.14-34.5,19.8c-18.27-10.45-30.03-17.2-34.51-19.8c-3.79-2.2-6.8-4.37-8.52-5.69
		l-1.32-1.59c-1.17-1.42-1.98-2.6-2.53-3.53c-0.19-1.31-0.39-2.97-0.46-4.21V263.1v-2.25c-11.23-6.3-31.8-17.92-46.36-26.36v71.38
		l0.02,0.91c0.18,4.84,1.11,11.75,2.09,15.71l0.44,1.77l0.71,1.67c2.41,5.71,5.94,11.36,10.47,16.8l4.21,5.06l1.63,1.36
		c2.17,1.79,8.13,6.51,16.34,11.27c5.39,3.13,21.27,12.24,46.27,26.52l11.51,6.58l11.51-6.58c25.65-14.66,40.84-23.38,46.27-26.53
		c8.11-4.71,14.06-9.4,16.25-11.19l1.68-1.38l4.25-5.1c4.52-5.44,8.06-11.1,10.48-16.82l0.7-1.66l0.43-1.75
		c0.99-3.98,1.91-10.9,2.12-15.76V213.8l0,0v-15.46l21.02-14.61c8.73-5.46,22.72-14.98,34.05-26.32V306.9
		c0,0.21-0.38,21.84-6.46,37.66c-4.58,11.72-11.33,22.99-20.04,33.44l-1.25,1.65c-5.28,7.62-19.91,19.32-35.57,28.4
		c-8.1,4.7-36.39,20.88-60.32,34.56V496c24.04-13.74,72.3-41.3,83.59-47.85c8.22-4.78,35.77-21.67,49.77-41.21
		c11.64-14.1,20.71-29.42,27.04-45.64c9.06-23.5,9.56-50.92,9.6-54.19V46.32V20H395.68z"/>
	<g>
		<polygon class="st4" points="293.93,64.43 293.93,66.36 293.93,100.26 293.93,121.41 293.93,130.29 340.28,102.04 340.28,90.9 
			340.28,66.36 340.28,20 246.59,20 246.59,64.43 		"/>
		<path class="st4" d="M395.34,157.41V306.9c0,0.21-0.38,21.84-6.46,37.66c-4.58,11.72-11.33,22.99-20.04,33.44l-1.25,1.65
			c-5.28,7.62-19.91,19.32-35.57,28.4c-8.1,4.7-36.39,20.88-60.32,34.56V496c24.04-13.74,72.3-41.3,83.59-47.85
			c8.22-4.78,35.77-21.67,49.77-41.21c11.64-14.1,20.71-29.42,27.04-45.64c9.06-23.5,9.56-50.92,9.6-54.19V46.32V20h-46.02
			c1.42,13.88,0.31,27.96-1.3,39.08c-0.36,2.61-0.78,5.04-1.17,7.28h0.15c-0.65,3.93-1.54,8.06-2.69,12.04
			c-0.4,1.56-0.66,2.44-0.66,2.44l-0.13,0.03c-0.3,0.97-0.64,1.94-1,2.88c-4.58,11.74-11.33,22.99-20.04,33.45l-1.25,1.64
			c-4.35,6.26-14.99,15.26-27.32,23.3v-0.17l-46.35,26.92v0.21c-17.11,9.79-35.74,20.41-47.34,27.04v53.39l11.49-6.56
			c1.47-0.84,17.24-9.84,35.85-20.46v40.6v42.23c-0.08,1.25-0.27,2.91-0.48,4.19c-0.54,0.93-1.35,2.12-2.53,3.54l-1.33,1.59
			c-1.73,1.33-4.75,3.5-8.5,5.69c-4.52,2.62-15.9,9.14-34.5,19.8v53.4l11.51-6.58c25.65-14.66,40.84-23.38,46.27-26.53
			c8.11-4.71,14.06-9.4,16.25-11.19l1.68-1.38l4.25-5.1c4.52-5.44,8.06-11.1,10.48-16.82l0.7-1.66l0.43-1.75
			c0.99-3.98,1.91-10.9,2.12-15.76V198.35C340.27,198.35,381.58,172.77,395.34,157.41z"/>
	</g>
</g>
</svg>
