<svg id="ebg0C3PpHLa1" xmlns="http://www.w3.org/2000/svg" xmlns:xlink="http://www.w3.org/1999/xlink" viewBox="0 0 4000 4000" shape-rendering="geometricPrecision" text-rendering="geometricPrecision"><style><![CDATA[#ebg0C3PpHLa33_tr {animation: ebg0C3PpHLa33_tr__tr 2000ms linear infinite normal forwards}@keyframes ebg0C3PpHLa33_tr__tr { 0% {transform: translate(1963.359924px,1425.259949px) rotate(0deg)} 50% {transform: translate(1963.359924px,1425.259949px) rotate(11.819142deg)} 100% {transform: translate(1963.359924px,1425.259949px) rotate(0deg)}} #ebg0C3PpHLa83_to {animation: ebg0C3PpHLa83_to__to 2000ms linear infinite normal forwards}@keyframes ebg0C3PpHLa83_to__to { 0% {transform: translate(1999.624939px,2311.814880px)} 50% {transform: translate(1999.624939px,2206.274089px)} 100% {transform: translate(1999.624939px,2311.817410px)}} #ebg0C3PpHLa95_tr {animation: ebg0C3PpHLa95_tr__tr 2000ms linear infinite normal forwards}@keyframes ebg0C3PpHLa95_tr__tr { 0% {transform: translate(1201.841675px,2124.644165px) rotate(0deg)} 50% {transform: translate(1201.841675px,2124.644165px) rotate(-11.280000deg)} 100% {transform: translate(1201.841675px,2124.644165px) rotate(0deg)}} #ebg0C3PpHLa104_tr {animation: ebg0C3PpHLa104_tr__tr 2000ms linear infinite normal forwards}@keyframes ebg0C3PpHLa104_tr__tr { 0% {transform: translate(2819.382080px,2123.711548px) rotate(0deg)} 50% {transform: translate(2819.382080px,2123.711548px) rotate(11.276058deg)} 100% {transform: translate(2819.382080px,2123.711548px) rotate(0deg)}}]]></style><defs><linearGradient id="ebg0C3PpHLa89-fill" x1="2075.257600" y1="1947.789800" x2="1865.236700" y2="2709.865000" spreadMethod="pad" gradientUnits="userSpaceOnUse"><stop id="ebg0C3PpHLa89-fill-0" offset="0%" stop-color="rgb(254,112,98)"/><stop id="ebg0C3PpHLa89-fill-1" offset="100%" stop-color="rgb(255,146,142)"/></linearGradient><linearGradient id="ebg0C3PpHLa90-fill" x1="2119.335000" y1="1959.936900" x2="1909.314100" y2="2722.013200" spreadMethod="pad" gradientUnits="userSpaceOnUse"><stop id="ebg0C3PpHLa90-fill-0" offset="0%" stop-color="rgb(254,112,98)"/><stop id="ebg0C3PpHLa90-fill-1" offset="100%" stop-color="rgb(255,146,142)"/></linearGradient><linearGradient id="ebg0C3PpHLa91-fill" x1="2053.406500" y1="2320.658900" x2="1959.530500" y2="2443.581800" spreadMethod="pad" gradientUnits="userSpaceOnUse"><stop id="ebg0C3PpHLa91-fill-0" offset="0%" stop-color="rgb(225,71,61)"/><stop id="ebg0C3PpHLa91-fill-1" offset="100%" stop-color="rgb(233,96,90)"/></linearGradient><linearGradient id="ebg0C3PpHLa93-fill" x1="2009.936232" y1="2081.311378" x2="2010.591745" y2="2571.597978" spreadMethod="pad" gradientUnits="userSpaceOnUse"><stop id="ebg0C3PpHLa93-fill-0" offset="0%" stop-color="rgb(255,227,25)"/><stop id="ebg0C3PpHLa93-fill-1" offset="100%" stop-color="rgb(233,135,0)"/></linearGradient></defs><g id="ebg0C3PpHLa2"><g id="ebg0C3PpHLa3"><g id="ebg0C3PpHLa4" display="none"><g id="ebg0C3PpHLa5"><rect id="ebg0C3PpHLa6" width="4000" height="4000" rx="0" ry="0" fill="rgb(149,196,252)" stroke="none" stroke-width="1"/></g></g><g id="ebg0C3PpHLa7"><g id="ebg0C3PpHLa8" opacity="0.3"><ellipse id="ebg0C3PpHLa9" rx="1207.360000" ry="156.940000" transform="matrix(1 0 0 1 2000 3288.05999999999995)" fill="rgb(55,26,69)" stroke="none" stroke-width="1"/></g><g id="ebg0C3PpHLa10"><g id="ebg0C3PpHLa11"><path id="ebg0C3PpHLa12" d="M2508.640000,2891.260000L1496.160000,2891.260000C1409.910000,2891.260000,1340,2821.340000,1340,2735.100000L1340,2008.630000C1340,1922.380000,1409.920000,1852.470000,1496.160000,1852.470000L2508.640000,1852.470000C2594.890000,1852.470000,2664.800000,1922.390000,2664.800000,2008.630000L2664.800000,2735.100000C2664.810000,2821.340000,2594.890000,2891.260000,2508.640000,2891.260000Z" fill="rgb(255,255,255)" stroke="none" stroke-width="1"/></g><g id="ebg0C3PpHLa13"><path id="ebg0C3PpHLa14" d="M2664.800000,2008.610000L2664.800000,2735.080000C2664.800000,2821.340000,2594.870000,2891.270000,2508.650000,2891.270000L1496.150000,2891.270000C1409.930000,2891.270000,1340,2821.340000,1340,2735.080000L1340,2008.610000C1340,1922.390000,1409.930000,1852.460000,1496.150000,1852.460000L2508.660000,1852.460000C2594.880000,1852.470000,2664.800000,1922.390000,2664.800000,2008.610000Z" fill="rgb(255,255,255)" stroke="none" stroke-width="1"/></g><g id="ebg0C3PpHLa15" opacity="0.35"><path id="ebg0C3PpHLa16" d="M2664.800000,2096.640000L2664.800000,2735.080000C2664.800000,2821.340000,2594.870000,2891.270000,2508.650000,2891.270000L1496.150000,2891.270000C1409.930000,2891.270000,1340,2821.340000,1340,2735.080000L1340,2096.640000C1340,2010.420000,1409.930000,1940.490000,1496.150000,1940.490000L2508.660000,1940.490000C2594.880000,1940.490000,2664.800000,2010.420000,2664.800000,2096.640000Z" fill="rgb(55,26,69)" stroke="none" stroke-width="1"/></g><g id="ebg0C3PpHLa17"><path id="ebg0C3PpHLa18" d="M2508.640000,2908.520000L1496.160000,2908.520000C1400.530000,2908.520000,1322.730000,2830.720000,1322.730000,2735.090000L1322.730000,2008.620000C1322.730000,1912.990000,1400.530000,1835.190000,1496.160000,1835.190000L2508.640000,1835.190000C2604.270000,1835.190000,2682.070000,1912.990000,2682.070000,2008.620000L2682.070000,2735.090000C2682.070000,2830.720000,2604.270000,2908.520000,2508.640000,2908.520000ZM1496.160000,1869.720000C1419.570000,1869.720000,1357.250000,1932.030000,1357.250000,2008.620000L1357.250000,2735.090000C1357.250000,2811.680000,1419.560000,2873.990000,1496.160000,2873.990000L2508.640000,2873.990000C2585.230000,2873.990000,2647.550000,2811.680000,2647.550000,2735.090000L2647.550000,2008.620000C2647.550000,1932.030000,2585.240000,1869.720000,2508.640000,1869.720000L1496.160000,1869.720000Z" fill="rgb(55,26,69)" stroke="none" stroke-width="1"/></g><g id="ebg0C3PpHLa19"><path id="ebg0C3PpHLa20" d="M2312.370000,1975.860000C2584.540000,2450.940000,2578.270000,3017.170000,2578.270000,3017.170000L2000,3017.170000L2019.350000,3017.170000L1441.080000,3017.170000C1441.080000,3017.170000,1434.810000,2450.930000,1706.980000,1975.860000" fill="rgb(255,255,255)" stroke="none" stroke-width="1"/></g><g id="ebg0C3PpHLa21"><path id="ebg0C3PpHLa22" d="M2595.340000,3034.430000L1424.020000,3034.430000L1423.830000,3017.360000C1423.820000,3015.930000,1422.620000,2872.010000,1454.930000,2671.920000C1484.770000,2487.170000,1550.120000,2214.940000,1692.010000,1967.280000C1696.750000,1959.010000,1707.300000,1956.150000,1715.560000,1960.880000C1723.830000,1965.620000,1726.700000,1976.170000,1721.960000,1984.440000C1481.510000,2404.150000,1460.300000,2902.180000,1458.500000,2999.910000L2560.850000,2999.910000C2559.050000,2902.180000,2537.840000,2404.150000,2297.390000,1984.440000C2292.650000,1976.170000,2295.510000,1965.620000,2303.790000,1960.880000C2312.060000,1956.150000,2322.610000,1959.010000,2327.340000,1967.280000C2469.230000,2214.940000,2534.580000,2487.170000,2564.420000,2671.920000C2596.740000,2872.010000,2595.540000,3015.930000,2595.530000,3017.360000L2595.340000,3034.430000Z" fill="rgb(55,26,69)" stroke="none" stroke-width="1"/></g><g id="ebg0C3PpHLa23"><path id="ebg0C3PpHLa24" d="M2531.590000,2636.850000C2459.810000,2657.570000,2484.610000,2517.160000,2348.440000,2451.970000L1674.440000,2451.970000C1538.270000,2517.160000,1559,2668.440000,1491.290000,2636.850000C1378,2584,1319,2561,1302,2416C1294,2347.750000,1253.480000,2302.020000,1292.940000,2235.060000C1480.180000,1917.330000,1956.450000,1640.670000,1956.450000,1640.670000L2066.420000,1640.670000C2066.420000,1640.670000,2542.690000,1917.320000,2729.930000,2235.060000C2769.390000,2302.020000,2791.850000,2372.750000,2765,2436C2689,2615,2635,2607,2531.590000,2636.850000Z" fill="rgb(255,255,255)" stroke="none" stroke-width="1"/></g><g id="ebg0C3PpHLa25"><path id="ebg0C3PpHLa26" d="M2531.590000,2636.850000C2511.450000,2644.040000,2503.330000,2608.710000,2492.910000,2591.870000C2471.240000,2556.840000,2452.800000,2515.230000,2390.730000,2475.370000C2372.710000,2455.090000,2347.100000,2434.380000,2305.940000,2414.640000L1716.930000,2414.640000C1675.770000,2434.380000,1650.150000,2455.080000,1632.140000,2475.370000C1570.070000,2515.230000,1551.630000,2556.840000,1529.960000,2591.870000C1519.540000,2608.710000,1512.230000,2639.620000,1491,2637C1402,2626,1351,2652,1320,2403C1311.510000,2334.790000,1253.490000,2302.010000,1292.920000,2235.060000C1480.190000,1917.310000,1956.430000,1640.670000,1956.430000,1640.670000L2066.420000,1640.670000C2066.420000,1640.670000,2542.670000,1917.310000,2729.930000,2235.060000C2769.370000,2302,2777.200000,2351.670000,2752.990000,2416C2686,2594,2618,2606,2531.590000,2636.850000Z" fill="rgb(255,255,255)" stroke="none" stroke-width="1"/></g><g id="ebg0C3PpHLa27" opacity="0.35"><path id="ebg0C3PpHLa28" d="M2492.910000,2591.870000C2471.240000,2556.840000,2452.800000,2515.230000,2390.730000,2475.370000C2372.710000,2455.090000,2347.100000,2434.380000,2305.940000,2414.640000L1716.930000,2414.640000C1675.770000,2434.380000,1650.150000,2455.080000,1632.140000,2475.370000C1570.070000,2515.230000,1551.630000,2556.840000,1529.960000,2591.870000C1446.130000,2629.290000,1304.980000,2604.090000,1319.970000,2403.470000C1325.770000,2343.710000,1349.030000,2283.610000,1383.510000,2225.110000C1547.170000,1947.420000,1963.370000,1705.650000,1963.370000,1705.650000L2059.500000,1705.650000C2059.500000,1705.650000,2475.730000,1947.430000,2639.360000,2225.110000C2673.840000,2283.610000,2697.110000,2343.710000,2702.900000,2403.470000C2717.930000,2604.090000,2576.740000,2629.290000,2492.910000,2591.870000Z" fill="rgb(55,26,69)" stroke="none" stroke-width="1"/></g><g id="ebg0C3PpHLa29"><path id="ebg0C3PpHLa30" d="M1424,2638C1366.390000,2609.210000,1382.040000,2585.590000,1360,2576C1309.830000,2554.170000,1282.370000,2571.250000,1293,2429C1299.510000,2361.980000,1273.492981,2266.231577,1278.060000,2226.310000C1465.450000,1908.340000,1928.180000,1637.140000,1947.780000,1625.750000C1956.020000,1620.960000,1966.580000,1623.760000,1971.370000,1632C1976.160000,1640.240000,1973.360000,1650.810000,1965.120000,1655.600000C1960.390000,1658.350000,1490.560000,1933.720000,1307.790000,2243.840000C1267.060000,2312.950000,1315.980000,2354.410000,1309.990000,2416C1302.690000,2513.700000,1293.930000,2520.330000,1349.990000,2551C1406.410000,2581.850000,1441.090000,2652.950000,1480.910000,2623.030000C1500.160000,2608.570000,1511.190000,2589.890000,1523.970000,2568.260000C1547.250000,2528.870000,1576.220000,2479.840000,1666.980000,2436.380000C1714.600000,2413.580000,1740.410000,2363.090000,1736.020000,2301.320000C1732.120000,2246.540000,1701.250000,2182.800000,1641.080000,2163.890000C1572.590000,2142.360000,1495.650000,2184.360000,1405.830000,2292.250000L1402.220000,2296.610000C1383.710000,2319.050000,1360.670000,2346.950000,1335.290000,2341.270000C1321.260000,2338.120000,1311.480000,2326,1306.210000,2305.230000C1303.870000,2295.990000,1309.450000,2286.600000,1318.700000,2284.260000C1327.910000,2281.920000,1337.330000,2287.500000,1339.670000,2296.750000C1341.110000,2302.400000,1342.550000,2305.450000,1343.470000,2306.970000C1351.990000,2303.260000,1368.930000,2282.720000,1375.590000,2274.650000L1379.300000,2270.170000C1479.090000,2150.320000,1568.100000,2104.790000,1651.430000,2130.970000C1716.940000,2151.560000,1764.770000,2219.030000,1770.450000,2298.880000C1775.810000,2374.180000,1741.870000,2438.810000,1681.890000,2467.530000C1600.600000,2506.450000,1575.670000,2548.620000,1553.690000,2585.830000C1539.650000,2609.600000,1526.380000,2632.050000,1501.640000,2650.630000C1471.410000,2673.350000,1469.570000,2638,1424,2638Z" fill="rgb(55,26,69)" stroke="none" stroke-width="1"/></g><g id="ebg0C3PpHLa31"><path id="ebg0C3PpHLa32" d="M2569,2615C2523.420000,2615,2567.240000,2632.720000,2537,2610C2512.260000,2591.410000,2483.210000,2609.590000,2469.170000,2585.820000C2447.190000,2548.610000,2422.270000,2506.440000,2340.980000,2467.520000C2280.990000,2438.800000,2247.050000,2374.180000,2252.410000,2298.870000C2258.090000,2219.020000,2305.920000,2151.540000,2371.430000,2130.960000C2454.760000,2104.780000,2543.770000,2150.310000,2643.560000,2270.160000L2647.270000,2274.640000C2653.930000,2282.710000,2670.870000,2303.260000,2679.390000,2306.960000C2680.310000,2305.440000,2681.750000,2302.390000,2683.180000,2296.740000C2685.530000,2287.500000,2694.920000,2281.910000,2704.160000,2284.250000C2713.400000,2286.590000,2718.990000,2295.980000,2716.650000,2305.220000C2711.390000,2325.990000,2701.600000,2338.120000,2687.570000,2341.260000C2662.100000,2346.960000,2639.140000,2319.030000,2620.640000,2296.600000L2617.030000,2292.240000C2527.210000,2184.360000,2450.270000,2142.350000,2381.780000,2163.880000C2321.610000,2182.790000,2290.740000,2246.530000,2286.840000,2301.310000C2282.450000,2363.080000,2308.260000,2413.570000,2355.880000,2436.370000C2446.640000,2479.820000,2475.610000,2528.850000,2498.890000,2568.250000C2511.670000,2589.880000,2535.750000,2568.520000,2555,2582.990000C2594.820000,2612.900000,2561.580000,2636.860000,2618,2605.990000C2674.060000,2575.320000,2742.330000,2532.070000,2735,2433.990000C2729.050000,2372.790000,2755.810000,2312.940000,2715.080000,2243.830000C2532.230000,1933.580000,2062.480000,1658.340000,2057.750000,1655.590000C2049.510000,1650.800000,2046.710000,1640.240000,2051.500000,1632C2056.290000,1623.760000,2066.860000,1620.950000,2075.100000,1625.740000C2094.700000,1637.130000,2547.989648,1900.370911,2735.389648,2218.340911C2768.339666,2399.071850,2750.550000,2353.197941,2757.020000,2419.827941C2767.690000,2562.457941,2654.010000,2592.730000,2606.010000,2618.990000C2578.700000,2633.930000,2598.260000,2615,2569,2615Z" transform="matrix(1 0 0 1 0 -2.89794067000003)" fill="rgb(55,26,69)" stroke="none" stroke-width="1"/></g><g id="ebg0C3PpHLa33_tr" transform="translate(1963.359924,1425.259949) rotate(0)"><g id="ebg0C3PpHLa33" transform="translate(-1963.359924,-1425.259949)"><g id="ebg0C3PpHLa34"><path id="ebg0C3PpHLa35" d="M2693.280000,1519.400000L2693.280000,1519.400000C2685.280000,1520.900000,2677.590000,1515.630000,2676.090000,1507.630000L2598.010000,1090.650000C2596.510000,1082.660000,2601.780000,1074.960000,2609.780000,1073.460000L2609.780000,1073.460000C2693.660000,1057.750000,2774.380000,1113.020000,2790.090000,1196.890000L2816.720000,1339.080000C2832.420000,1422.970000,2777.160000,1503.700000,2693.280000,1519.400000Z" fill="rgb(255,255,255)" stroke="none" stroke-width="1"/><path id="ebg0C3PpHLa36" d="M2690.570000,1522.760000C2682.160000,1522.760000,2674.660000,1516.770000,2673.050000,1508.210000L2594.970000,1091.230000C2593.160000,1081.570000,2599.550000,1072.240000,2609.210000,1070.420000C2650.570000,1062.650000,2692.510000,1071.500000,2727.250000,1095.280000C2761.990000,1119.060000,2785.390000,1154.950000,2793.130000,1196.330000L2819.760000,1338.520000C2827.510000,1379.900000,2818.680000,1421.820000,2794.900000,1456.560000C2771.120000,1491.300000,2735.230000,1514.700000,2693.850000,1522.450000L2693.850000,1522.450000C2692.750000,1522.660000,2691.650000,1522.760000,2690.570000,1522.760000ZM2638.540000,1073.890000C2629.180000,1073.890000,2619.760000,1074.760000,2610.360000,1076.520000C2604.060000,1077.700000,2599.890000,1083.790000,2601.070000,1090.090000L2679.150000,1507.070000C2680.330000,1513.370000,2686.430000,1517.540000,2692.720000,1516.360000L2692.720000,1516.360000C2732.470000,1508.920000,2766.950000,1486.440000,2789.800000,1453.060000C2812.640000,1419.690000,2821.120000,1379.420000,2813.680000,1339.670000L2787.050000,1197.480000C2779.610000,1157.730000,2757.130000,1123.250000,2723.760000,1100.410000C2698.270000,1082.960000,2668.760000,1073.890000,2638.540000,1073.890000Z" fill="rgb(55,26,69)" stroke="none" stroke-width="1"/></g><g id="ebg0C3PpHLa37" opacity="0.35"><path id="ebg0C3PpHLa38" d="M2804.230000,1272.420000L2816.730000,1339.110000C2832.420000,1422.960000,2777.170000,1503.700000,2693.280000,1519.440000C2685.290000,1520.950000,2677.590000,1515.630000,2676.080000,1507.640000L2655.290000,1396.800000C2658.480000,1401.430000,2664.190000,1403.980000,2670.070000,1402.920000L2679.950000,1401.040000C2746.240000,1388.640000,2794.680000,1335.590000,2804.230000,1272.420000Z" fill="rgb(55,26,69)" stroke="none" stroke-width="1"/></g><g id="ebg0C3PpHLa39"><path id="ebg0C3PpHLa40" d="M2690.560000,1536.920000C2675.470000,1536.920000,2662.010000,1526.180000,2659.130000,1510.820000L2581.050000,1093.840000C2577.800000,1076.510000,2589.260000,1059.760000,2606.600000,1056.510000C2651.710000,1048.060000,2697.390000,1057.690000,2735.250000,1083.610000C2773.110000,1109.530000,2798.610000,1148.640000,2807.060000,1193.730000L2833.690000,1335.920000C2842.130000,1381.020000,2832.510000,1426.700000,2806.600000,1464.560000C2780.680000,1502.420000,2741.570000,1527.920000,2696.470000,1536.370000L2696.470000,1536.370000C2694.480000,1536.740000,2692.510000,1536.920000,2690.560000,1536.920000ZM2615.460000,1089.990000L2692.590000,1501.950000C2727.580000,1494.750000,2757.870000,1474.620000,2778.100000,1445.060000C2798.810000,1414.810000,2806.490000,1378.300000,2799.750000,1342.270000L2773.120000,1200.080000C2766.380000,1164.050000,2746,1132.800000,2715.750000,1112.090000C2686.200000,1091.860000,2650.670000,1084.060000,2615.460000,1089.990000Z" fill="rgb(55,26,69)" stroke="none" stroke-width="1"/></g><g id="ebg0C3PpHLa41"><path id="ebg0C3PpHLa42" d="M1233.430000,1331.190000L1233.430000,1331.190000C1241.420000,1329.690000,1249.120000,1334.960000,1250.620000,1342.960000L1328.700000,1759.940000C1330.200000,1767.930000,1324.930000,1775.630000,1316.930000,1777.130000L1316.930000,1777.130000C1233.050000,1792.840000,1152.330000,1737.570000,1136.620000,1653.700000L1110,1511.500000C1094.300000,1427.620000,1149.560000,1346.900000,1233.430000,1331.190000Z" fill="rgb(255,255,255)" stroke="none" stroke-width="1"/><path id="ebg0C3PpHLa43" d="M1288.170000,1782.910000C1256.710000,1782.910000,1226,1773.470000,1199.470000,1755.310000C1164.730000,1731.530000,1141.330000,1695.640000,1133.590000,1654.260000L1106.960000,1512.070000C1099.210000,1470.690000,1108.040000,1428.770000,1131.820000,1394.030000C1155.600000,1359.290000,1191.490000,1335.890000,1232.870000,1328.150000L1232.870000,1328.150000C1242.570000,1326.340000,1251.870000,1332.730000,1253.680000,1342.390000L1331.760000,1759.370000C1332.640000,1764.050000,1331.640000,1768.790000,1328.950000,1772.720000C1326.260000,1776.650000,1322.200000,1779.300000,1317.520000,1780.170000C1307.730000,1782,1297.910000,1782.910000,1288.170000,1782.910000ZM1234.010000,1334.240000C1194.260000,1341.680000,1159.780000,1364.160000,1136.930000,1397.530000C1114.090000,1430.900000,1105.610000,1471.170000,1113.050000,1510.930000L1139.680000,1653.120000C1147.120000,1692.870000,1169.600000,1727.350000,1202.970000,1750.190000C1236.340000,1773.030000,1276.600000,1781.510000,1316.370000,1774.070000C1319.420000,1773.500000,1322.070000,1771.770000,1323.820000,1769.210000C1325.580000,1766.650000,1326.230000,1763.560000,1325.660000,1760.500000L1247.580000,1343.520000C1246.390000,1337.220000,1240.280000,1333.060000,1234.010000,1334.240000L1234.010000,1334.240000Z" fill="rgb(55,26,69)" stroke="none" stroke-width="1"/></g><g id="ebg0C3PpHLa44" opacity="0.35"><path id="ebg0C3PpHLa45" d="M1307.070000,1644.250000L1328.720000,1759.930000C1330.230000,1767.920000,1324.910000,1775.620000,1316.920000,1777.130000C1272.890000,1785.350000,1229.700000,1774.060000,1196.340000,1749.290000C1166.210000,1726.920000,1144.110000,1693.530000,1136.650000,1653.710000L1125.430000,1593.790000C1159.080000,1641.900000,1218.990000,1668.590000,1280.480000,1657.080000L1295.700000,1654.230000C1301.250000,1653.190000,1305.400000,1649.230000,1307.070000,1644.250000Z" fill="rgb(55,26,69)" stroke="none" stroke-width="1"/></g><g id="ebg0C3PpHLa46"><path id="ebg0C3PpHLa47" d="M1288.140000,1797.070000C1253.850000,1797.070000,1220.380000,1786.780000,1191.470000,1766.990000C1153.610000,1741.070000,1128.110000,1701.960000,1119.660000,1656.860000L1093.030000,1514.670000C1084.590000,1469.570000,1094.210000,1423.890000,1120.120000,1386.020000C1146.040000,1348.160000,1185.150000,1322.660000,1230.250000,1314.220000L1230.250000,1314.220000C1247.590000,1310.980000,1264.330000,1322.430000,1267.580000,1339.770000L1345.660000,1756.750000C1347.230000,1765.140000,1345.440000,1773.650000,1340.620000,1780.710000C1335.790000,1787.760000,1328.510000,1792.510000,1320.110000,1794.080000C1309.450000,1796.080000,1298.750000,1797.070000,1288.140000,1797.070000ZM1234.130000,1348.650000C1199.140000,1355.850000,1168.850000,1375.980000,1148.620000,1405.540000C1127.910000,1435.790000,1120.230000,1472.300000,1126.970000,1508.330000L1153.600000,1650.520000C1160.340000,1686.560000,1180.720000,1717.810000,1210.970000,1738.510000C1240.520000,1758.740000,1276.030000,1766.540000,1311.260000,1760.600000L1234.130000,1348.650000Z" fill="rgb(55,26,69)" stroke="none" stroke-width="1"/></g><g id="ebg0C3PpHLa48"><circle id="ebg0C3PpHLa49" r="722.920000" transform="matrix(1 0 0 1 1963.45000000000005 1425.27999999999997)" fill="rgb(255,255,255)" stroke="none" stroke-width="1"/><path id="ebg0C3PpHLa50" d="M1962.910000,2151.340000C1599.240000,2151.360000,1284.530000,1877.730000,1242.150000,1507.950000C1220.070000,1315.280000,1274.330000,1125.550000,1394.960000,973.700000C1515.580000,821.850000,1688.110000,726.060000,1880.780000,703.980000C2073.430000,681.910000,2263.170000,736.170000,2415.020000,856.790000C2566.870000,977.410000,2662.660000,1149.940000,2684.740000,1342.610000C2730.330000,1740.330000,2443.840000,2100.990000,2046.120000,2146.580000C2018.180000,2149.780000,1990.390000,2151.340000,1962.910000,2151.340000ZM1964.860000,705.370000C1937.190000,705.370000,1909.380000,706.950000,1881.480000,710.150000C1690.460000,732.040000,1519.400000,827.010000,1399.810000,977.560000C1280.220000,1128.110000,1226.420000,1316.220000,1248.310000,1507.240000C1290.330000,1873.840000,1602.380000,2145.120000,1962.910000,2145.140000C1990.180000,2145.140000,2017.680000,2143.590000,2045.410000,2140.410000C2439.730000,2095.210000,2723.770000,1737.640000,2678.570000,1343.310000C2656.680000,1152.290000,2561.710000,981.230000,2411.160000,861.640000C2282.600000,759.530000,2126.620000,705.370000,1964.860000,705.370000Z" fill="rgb(55,26,69)" stroke="none" stroke-width="1"/></g><g id="ebg0C3PpHLa51" opacity="0.35"><path id="ebg0C3PpHLa52" d="M2663.380000,1244.330000C2671.680000,1276.280000,2677.800000,1309.200000,2681.670000,1342.970000C2727.080000,1739.620000,2442.390000,2098.020000,2045.750000,2143.520000C1649.100000,2188.930000,1290.700000,1904.240000,1245.200000,1507.600000C1243.890000,1496.190000,1242.840000,1484.750000,1242.100000,1473.440000C1330.590000,1817.510000,1661.430000,2052.300000,2024.360000,2010.720000C2409.600000,1966.540000,2689.170000,1627.230000,2663.380000,1244.330000Z" fill="rgb(55,26,69)" stroke="none" stroke-width="1"/></g><g id="ebg0C3PpHLa53"><path id="ebg0C3PpHLa54" d="M1962.900000,2165.510000C1592.140000,2165.520000,1271.290000,1886.560000,1228.090000,1509.570000C1205.580000,1313.150000,1260.900000,1119.720000,1383.880000,964.900000C1506.850000,810.090000,1682.750000,712.430000,1879.180000,689.920000C2075.580000,667.420000,2269.030000,722.740000,2423.840000,845.710000C2578.650000,968.680000,2676.310000,1144.580000,2698.820000,1341L2698.820000,1341C2745.290000,1746.480000,2453.220000,2114.170000,2047.750000,2160.650000C2019.250000,2163.910000,1990.920000,2165.500000,1962.900000,2165.510000ZM1964.830000,719.530000C1937.710000,719.530000,1910.450000,721.080000,1883.100000,724.220000C1695.830000,745.680000,1528.140000,838.780000,1410.900000,986.370000C1293.660000,1133.960000,1240.910000,1318.370000,1262.380000,1505.630000C1303.570000,1865.020000,1609.490000,2130.960000,1962.930000,2130.980000C1989.660000,2130.980000,2016.620000,2129.460000,2043.800000,2126.350000C2430.370000,2082.040000,2708.820000,1731.500000,2664.510000,1344.930000L2664.510000,1344.930000C2643.050000,1157.670000,2549.950000,989.970000,2402.360000,872.740000C2276.320000,772.620000,2123.410000,719.530000,1964.830000,719.530000Z" fill="rgb(55,26,69)" stroke="none" stroke-width="1"/></g><g id="ebg0C3PpHLa55"><path id="ebg0C3PpHLa56" d="M2681.480000,1361.670000C2699.710000,1501.950000,2671.100000,1638.110000,2607.220000,1755.990000C2559.330000,1844.360000,2337.680000,2016.940000,2041.650000,2058.120000C1767.160000,2096.300000,1498.080000,1982.270000,1429.200000,1909.070000C1337.320000,1811.430000,1274.850000,1687.110000,1256.620000,1546.820000C1208.380000,1175.590000,1507.330000,980.240000,1900.810000,929.110000C2294.290000,877.990000,2633.240000,990.440000,2681.480000,1361.670000Z" fill="rgb(55,26,69)" stroke="none" stroke-width="1"/></g><g id="ebg0C3PpHLa57"><path id="ebg0C3PpHLa58" d="M1927.650000,2083.140000C1688.980000,2083.140000,1478.810000,1986.990000,1416.620000,1920.900000C1318.860000,1817.020000,1257.610000,1688.430000,1239.500000,1549.050000C1215.910000,1367.490000,1270.510000,1218.040000,1401.800000,1104.860000C1516.450000,1006.020000,1688.240000,939.340000,1898.590000,912C2108.940000,884.660000,2292.070000,905.230000,2428.170000,971.490000C2584.020000,1047.350000,2675.010000,1177.880000,2698.600000,1359.450000L2698.600000,1359.450000C2716.710000,1498.830000,2690.360000,1638.800000,2622.390000,1764.220000C2575.270000,1851.170000,2357.250000,2031.650000,2044.020000,2075.220000C2004.840000,2080.670000,1965.860000,2083.140000,1927.650000,2083.140000ZM2070.740000,935.140000C2006.420000,935.140000,1948.140000,940.370000,1903.040000,946.230000C1699.400000,972.690000,1533.870000,1036.580000,1424.340000,1131C1302.400000,1236.120000,1251.730000,1375.270000,1273.740000,1544.590000C1290.910000,1676.730000,1349.010000,1798.670000,1441.760000,1897.230000C1507.660000,1967.250000,1770.940000,2078.340000,2039.260000,2041.010000C2336.600000,1999.650000,2549.200000,1826.800000,2592.040000,1747.760000C2656.520000,1628.760000,2681.530000,1496.020000,2664.360000,1363.890000L2664.360000,1363.890000C2617.630000,1004.320000,2304.510000,935.140000,2070.740000,935.140000Z" fill="rgb(55,26,69)" stroke="none" stroke-width="1"/></g><g id="ebg0C3PpHLa59" opacity="0.7"><ellipse id="ebg0C3PpHLa60" rx="127.930000" ry="92.700000" transform="matrix(0.05000000000000 -0.99870000000000 0.99870000000000 0.05000000000000 2443.28327099999888 1341.43289399999958)" fill="rgb(255,255,255)" stroke="none" stroke-width="1"/></g><g id="ebg0C3PpHLa61" opacity="0.7"><ellipse id="ebg0C3PpHLa62" rx="58.720000" ry="50.390000" transform="matrix(0.18750000000000 -0.98230000000000 0.98230000000000 0.18750000000000 2363.40739399999939 1607.11753399999952)" fill="rgb(255,255,255)" stroke="none" stroke-width="1"/></g><g id="ebg0C3PpHLa63" opacity="0.35"><path id="ebg0C3PpHLa64" d="M2497.910000,1033.350000C2595.800000,1105.140000,2662.070000,1212.550000,2681.470000,1361.650000C2699.700000,1501.960000,2671.060000,1638.120000,2607.240000,1755.990000C2559.330000,1844.370000,2337.660000,2016.940000,2041.630000,2058.150000C1937.110000,2072.720000,1833.400000,2065.170000,1741.180000,2046.180000C2103.990000,1987.770000,2373.820000,1776.250000,2433.210000,1666.640000C2514.290000,1517.030000,2550.600000,1344.200000,2527.440000,1166.190000C2521.280000,1118.620000,2511.260000,1074.390000,2497.910000,1033.350000Z" fill="rgb(17,26,40)" stroke="none" stroke-width="1"/></g><g id="ebg0C3PpHLa65"><path id="ebg0C3PpHLa66" d="M1269.130000,1240.490000C1266.020000,1240.490000,1262.890000,1239.650000,1260.060000,1237.900000C1252.230000,1233.020000,1249.620000,1222.940000,1254.040000,1214.950000C1355.640000,1014.250000,1585.530000,876.830000,1884.880000,837.930000C2182.140000,799.310000,2438.970000,869.900000,2589.780000,1031.580000C2595.830000,1037.310000,2597,1046.730000,2592.160000,1053.830000C2586.790000,1061.710000,2576.050000,1063.730000,2568.180000,1058.370000L2566.310000,1057.180000L2565.150000,1055.790000C2422.130000,901.880000,2175.810000,834.960000,1889.330000,872.170000C1601.270000,909.610000,1380.860000,1040.390000,1284.630000,1230.990000L1283.780000,1232.480000C1280.490000,1237.640000,1274.870000,1240.490000,1269.130000,1240.490000Z" fill="rgb(55,26,69)" stroke="none" stroke-width="1"/></g><g id="ebg0C3PpHLa67" opacity="0.7"><path id="ebg0C3PpHLa68" d="M1445.310000,1746.880000C1445.310000,1746.880000,1282.740000,1395.600000,1461.150000,1224.010000C1639.560000,1052.420000,1923.590000,1016.110000,1919.320000,1035.190000C1919.320000,1035.190000,1614.850000,1152.140000,1524.140000,1416.650000C1454.190000,1620.620000,1445.310000,1746.880000,1445.310000,1746.880000Z" fill="rgb(255,255,255)" stroke="none" stroke-width="1"/></g></g></g><g id="ebg0C3PpHLa69"><path id="ebg0C3PpHLa70" d="M2012.640000,2828.310000C1842.950000,2828.310000,1708.220000,2810.480000,1612.180000,2775.300000C1497.060000,2733.140000,1437.090000,2666.110000,1433.920000,2576.070000L1433.920000,2575.980000C1432.840000,2540.040000,1448.020000,2505.610000,1479.040000,2473.650000C1568.070000,2381.910000,1777.520000,2322.620000,2012.630000,2322.620000C2337.150000,2322.620000,2591.360000,2433.680000,2591.360000,2575.460000C2590.300000,2740.910000,2390.180000,2828.310000,2012.640000,2828.310000ZM1468.430000,2574.930000C1474.860000,2755.820000,1767.920000,2793.780000,2012.640000,2793.780000C2215.360000,2793.780000,2555.620000,2765.400000,2556.850000,2575.350000C2556.850000,2457.120000,2307.630000,2357.140000,2012.640000,2357.140000C1789.880000,2357.140000,1585.400000,2413.620000,1503.820000,2497.690000C1479.550000,2522.700000,1467.640000,2548.690000,1468.430000,2574.930000Z" fill="rgb(55,26,69)" stroke="none" stroke-width="1"/></g><g id="ebg0C3PpHLa71" opacity="0.35"><ellipse id="ebg0C3PpHLa72" rx="33.470000" ry="12.730000" transform="matrix(1 0 0 1 1996.88000000000011 1901.03999999999996)" fill="rgb(55,26,69)" stroke="none" stroke-width="1"/></g><g id="ebg0C3PpHLa73" opacity="0.35"><ellipse id="ebg0C3PpHLa74" rx="33.470000" ry="12.730000" transform="matrix(1 0 0 1 1854.75999999999999 1936.40000000000009)" fill="rgb(55,26,69)" stroke="none" stroke-width="1"/></g><g id="ebg0C3PpHLa75" opacity="0.35"><ellipse id="ebg0C3PpHLa76" rx="33.470000" ry="12.730000" transform="matrix(1 0 0 1 2000.10999999999990 1967.38000000000011)" fill="rgb(55,26,69)" stroke="none" stroke-width="1"/></g><g id="ebg0C3PpHLa77" opacity="0.35"><ellipse id="ebg0C3PpHLa78" rx="33.470000" ry="12.730000" transform="matrix(1 0 0 1 2117.23999999999978 2013.65000000000009)" fill="rgb(55,26,69)" stroke="none" stroke-width="1"/></g><g id="ebg0C3PpHLa79" opacity="0.35"><ellipse id="ebg0C3PpHLa80" rx="33.470000" ry="12.730000" transform="matrix(1 0 0 1 1854.75999999999999 2023.89000000000010)" fill="rgb(55,26,69)" stroke="none" stroke-width="1"/></g><g id="ebg0C3PpHLa81" opacity="0.35"><ellipse id="ebg0C3PpHLa82" rx="33.470000" ry="12.730000" transform="matrix(1 0 0 1 2168.30999999999995 1936.40000000000009)" fill="rgb(55,26,69)" stroke="none" stroke-width="1"/></g><g id="ebg0C3PpHLa83_to" transform="translate(1999.624939,2311.814880)"><g id="ebg0C3PpHLa83" transform="translate(-1999.624939,-2311.814880)"><path id="ebg0C3PpHLa84" d="M2411.890000,2072.160000C2410.050000,2043.710000,2392.860000,2018.500000,2367.110000,2006.260000L2033.400000,1847.770000C2012.030000,1837.620000,1987.230000,1837.620000,1965.850000,1847.770000L1632.140000,2006.260000C1606.380000,2018.490000,1589.200000,2043.700000,1587.360000,2072.160000C1556.060000,2556.020000,1866.300000,2732.310000,1968,2776.850000C1988.170000,2785.680000,2011.080000,2785.680000,2031.250000,2776.850000C2132.950000,2732.320000,2443.190000,2556.020000,2411.890000,2072.160000Z" fill="rgb(155,10,255)" stroke="rgb(55,26,69)" stroke-width="30" stroke-miterlimit="10"/><path id="ebg0C3PpHLa85" d="M1898.680000,1914.800000C1896.810000,1914.800000,1895.020000,1913.750000,1894.170000,1911.950000C1892.990000,1909.460000,1894.050000,1906.480000,1896.540000,1905.300000L1975.390000,1867.850000C1977.880000,1866.670000,1980.860000,1867.730000,1982.040000,1870.220000C1983.220000,1872.710000,1982.160000,1875.690000,1979.670000,1876.870000L1900.820000,1914.320000C1900.120000,1914.650000,1899.390000,1914.800000,1898.680000,1914.800000Z" fill="rgb(220,157,255)" stroke="none" stroke-width="1"/><path id="ebg0C3PpHLa86" d="M1612.870000,2175.960000C1610.190000,2175.960000,1607.980000,2173.830000,1607.880000,2171.140000C1606.820000,2139.670000,1607.380000,2106.850000,1609.530000,2073.600000C1610.850000,2053.250000,1623.160000,2035.140000,1641.670000,2026.350000L1866.160000,1919.730000C1868.650000,1918.550000,1871.630000,1919.610000,1872.810000,1922.100000C1873.990000,1924.590000,1872.930000,1927.570000,1870.440000,1928.750000L1645.950000,2035.370000C1630.710000,2042.610000,1620.580000,2057.500000,1619.490000,2074.250000C1617.360000,2107.180000,1616.810000,2139.670000,1617.860000,2170.810000C1617.950000,2173.560000,1615.790000,2175.870000,1613.040000,2175.970000C1612.980000,2175.960000,1612.920000,2175.960000,1612.870000,2175.960000Z" fill="rgb(220,157,255)" stroke="none" stroke-width="1"/><path id="ebg0C3PpHLa87" d="M2331.190000,2091.050000C2330.820000,2083.840000,2326.530000,2077.400000,2320,2074.300000L2008.040000,1926.140000C2002.710000,1923.610000,1996.530000,1923.610000,1991.200000,1926.140000L1679.240000,2074.300000C1672.720000,2077.400000,1668.420000,2083.840000,1668.050000,2091.050000C1658.820000,2271.540000,1700.510000,2422.140000,1792.050000,2538.860000C1861.840000,2627.850000,1943.480000,2675.540000,1991.320000,2697.790000C1996.590000,2700.240000,2002.660000,2700.240000,2007.930000,2697.790000C2055.770000,2675.540000,2137.410000,2627.850000,2207.200000,2538.860000C2298.720000,2422.140000,2340.410000,2271.540000,2331.190000,2091.050000Z" fill="rgb(116,0,102)" stroke="rgb(55,26,69)" stroke-width="30" stroke-miterlimit="10"/><g id="ebg0C3PpHLa88" display="none"><path id="ebg0C3PpHLa89" d="M1907.380000,2284.970000L1876.290000,2284.970000L1876.290000,2161.070000C1876.290000,2112.400000,1912.720000,2071.280000,1961.030000,2065.410000L2024.600000,2057.680000C2051.960000,2054.350000,2079.490000,2062.930000,2100.120000,2081.210000C2120.750000,2099.490000,2132.590000,2125.780000,2132.590000,2153.350000L2132.590000,2261.520000L2101.500000,2261.520000L2101.500000,2153.350000C2101.500000,2134.680000,2093.480000,2116.870000,2079.510000,2104.490000C2065.530000,2092.110000,2046.880000,2086.300000,2028.350000,2088.550000L1964.780000,2096.280000C1932.060000,2100.260000,1907.380000,2128.110000,1907.380000,2161.080000L1907.380000,2284.970000Z" fill="url(#ebg0C3PpHLa89-fill)" stroke="rgb(55,26,69)" stroke-width="30" stroke-miterlimit="10"/><path id="ebg0C3PpHLa90" d="M1867.100000,2257.150000L2139.650000,2242.050000C2150.720000,2241.440000,2160.030000,2250.250000,2160.030000,2261.330000L2160.030000,2477.250000C2160.030000,2487.920000,2151.380000,2496.560000,2140.720000,2496.560000L1874.720000,2496.560000C1864.300000,2496.560000,1855.760000,2488.290000,1855.420000,2477.880000L1848.870000,2277.060000C1848.520000,2266.580000,1856.620000,2257.730000,1867.100000,2257.150000Z" fill="url(#ebg0C3PpHLa90-fill)" stroke="rgb(55,26,69)" stroke-width="30" stroke-miterlimit="10"/><path id="ebg0C3PpHLa91" d="M2048.870000,2434.710000L2032.370000,2387.280000C2030.390000,2381.580000,2031.740000,2375.200000,2035.980000,2370.910000C2044.430000,2362.340000,2049.470000,2350.400000,2048.870000,2337.280000C2047.820000,2314.150000,2028.920000,2295.390000,2005.780000,2294.500000C1980.170000,2293.520000,1959.100000,2313.990000,1959.100000,2339.380000C1959.100000,2353.470000,1965.590000,2366.030000,1975.740000,2374.260000C1981,2378.530000,1983.170000,2385.550000,1980.940000,2391.950000L1966.070000,2434.710000C1962.450000,2445.110000,1970.170000,2455.970000,1981.190000,2455.970000L2033.760000,2455.970000C2044.770000,2455.980000,2052.490000,2445.110000,2048.870000,2434.710000Z" fill="url(#ebg0C3PpHLa91-fill)" stroke="rgb(55,26,69)" stroke-width="30" stroke-miterlimit="10"/></g><g id="ebg0C3PpHLa92"><path id="ebg0C3PpHLa93" d="M1971.280000,2556.430000C1947.480000,2542.550000,1911.520000,2521.570000,1902.210000,2516.060000C1891.780000,2509.870000,1866.120000,2493.380000,1852,2473.470000C1840.390000,2459.040000,1831.300000,2443.340000,1824.960000,2426.800000C1815.560000,2401.910000,1815.100000,2373.810000,1815.080000,2370.680000L1814.690000,2081.570000L1880.360000,2081.480000L1879.220000,2093.030000C1878.180000,2103.590000,1878.600000,2115.570000,1880.490000,2128.640000C1880.780000,2130.740000,1881.110000,2132.850000,1881.510000,2135.140000L1882.550000,2141.130000C1882.900000,2142.680000,1883.270000,2144.160000,1883.660000,2145.550000L1883.720000,2145.760000C1883.720000,2145.760000,1883.780000,2146.020000,1883.790000,2146.040000L1884.360000,2147.840000C1884.610000,2148.620000,1884.900000,2149.430000,1885.180000,2150.200000C1886.770000,2154.370000,1888.810000,2158.690000,1891.240000,2163.050000C1892.380000,2164.770000,1898.940000,2174.380000,1910.870000,2185.860000L1910.730000,2081.430000L2109.150000,2081.170000L2109.280000,2177.020000L2044.450000,2217.610000L2044.350000,2145.330000L1975.710000,2145.420000L1975.820000,2230.380000C1988.060000,2237.520000,2000.620000,2244.850000,2010.160000,2250.400000L2019.190000,2245.110000C2026.980000,2240.550000,2035.790000,2235.380000,2044.440000,2230.300000L2044.440000,2230.140000L2095.110000,2199.920000C2106.070000,2192.340000,2113.430000,2185.340000,2115.960000,2181.590000L2116.080000,2181.410000L2117.530000,2179.450000L2117.680000,2179.270000C2125.220000,2169.960000,2131.040000,2160.010000,2134.950000,2149.700000C2135.210000,2149.010000,2135.450000,2148.290000,2135.660000,2147.600000L2136.480000,2144.900000C2136.820000,2143.640000,2137.140000,2142.340000,2137.440000,2141L2138.480000,2134.820000C2138.800000,2132.910000,2139.200000,2130.540000,2139.530000,2128.110000C2141.350000,2115.070000,2141.730000,2103.170000,2140.670000,2092.680000L2139.500000,2081.140000L2205.180000,2081.050000L2205.560000,2370.020000C2205.500000,2375.230000,2204.770000,2402.430000,2195.880000,2426.150000C2189.560000,2442.820000,2180.490000,2458.580000,2168.910000,2473.050000C2154.840000,2493.010000,2129.220000,2509.560000,2118.820000,2515.770000C2109.340000,2521.420000,2072.680000,2542.940000,2048.420000,2557.170000L2023.880000,2571.570000L2023.780000,2495.480000L2028.970000,2492.430000C2051.530000,2479.180000,2078.400000,2463.400000,2085.980000,2458.880000C2101,2449.930000,2112.810000,2439.610000,2116.300000,2434.440000L2116.420000,2434.260000L2117.870000,2432.280000L2118.030000,2432.090000C2125.560000,2422.810000,2131.370000,2412.870000,2135.300000,2402.530000C2139.470000,2391.380000,2140.590000,2375.090000,2140.680000,2369.680000L2140.520000,2247.950000C2134.790000,2252.350000,2129.290000,2256.110000,2124.730000,2259.040000L2110.430000,2269.540000L2109.420000,2280.060000L2109.540000,2369.890000L2109.530000,2370.110000C2109.310000,2375.650000,2108.350000,2382.940000,2107.260000,2387.450000L2106.680000,2389.900000L2105.700000,2392.270000C2103.040000,2398.730000,2099.190000,2405.100000,2094.250000,2411.200000L2089.610000,2416.930000L2087.270000,2418.910000C2084.440000,2421.300000,2078.500000,2426.020000,2070.500000,2430.780000C2065.390000,2433.830000,2051.050000,2442.280000,2026.660000,2456.600000L2010.470000,2466.100000L1994.260000,2456.640000C1972.930000,2444.200000,1956.100000,2434.350000,1950.360000,2430.950000C1942.250000,2426.140000,1936.290000,2421.420000,1933.460000,2419.030000L1931.150000,2417.070000L1926.540000,2411.410000C1921.590000,2405.350000,1917.710000,2398.990000,1915.040000,2392.510000L1914.060000,2390.170000L1913.450000,2387.650000C1912.340000,2383.110000,1911.360000,2375.670000,1911.160000,2370.330000L1911.140000,2369.070000L1911.020000,2281.410000L1926.900000,2290.820000C1942.390000,2300,1964.340000,2312.600000,1970.700000,2316.240000L1975.970000,2319.260000L1976.040000,2368.120000C1976.060000,2368.330000,1976.080000,2368.560000,1976.100000,2368.810000C1976.230000,2368.980000,1976.370000,2369.150000,1976.520000,2369.340000L1977,2369.930000C1978.340000,2370.940000,1980.450000,2372.430000,1983.060000,2373.990000C1986.920000,2376.270000,1996.530000,2381.900000,2010.380000,2389.990000L2011.340000,2389.430000C2025.440000,2381.130000,2033.950000,2376.130000,2037.670000,2373.910000C2040.300000,2372.340000,2042.430000,2370.810000,2043.690000,2369.850000L2044.180000,2369.250000C2044.340000,2369.050000,2044.480000,2368.870000,2044.610000,2368.700000C2044.630000,2368.460000,2044.650000,2368.230000,2044.670000,2368.010000L2044.590000,2306.370000L2010.300000,2326.480000C2010.300000,2326.480000,1981.380000,2309.640000,1975.960000,2306.470000L1975.960000,2306.950000L1911,2268.580000L1911,2268.540000L1910.430000,2268.210000C1906.710000,2266.030000,1903.750000,2264.300000,1901.880000,2263.180000C1897.510000,2260.590000,1889.050000,2255.330000,1879.840000,2248.300000L1880,2370.240000C1880.080000,2375.240000,1881.270000,2391.730000,1885.530000,2403C1889.450000,2413.230000,1895.280000,2423.130000,1902.830000,2432.380000L1902.990000,2432.580000L1904.450000,2434.550000L1904.570000,2434.720000C1908.070000,2439.870000,1919.910000,2450.160000,1934.950000,2459.070000C1944.360000,2464.640000,1981.030000,2486.040000,1992.040000,2492.470000L1997.240000,2495.500000L1997.340000,2571.600000L1971.280000,2556.430000Z" fill="url(#ebg0C3PpHLa93-fill)" stroke="none" stroke-width="1"/><path id="ebg0C3PpHLa94" d="M2194.690000,2091.570000L2194.720000,2117.080000L2195.060000,2369.920000C2195.030000,2373.100000,2194.590000,2399.680000,2186.040000,2422.470000C2180.070000,2438.200000,2171.490000,2453.060000,2160.490000,2466.750000C2147.260000,2485.700000,2121.200000,2502.110000,2113.420000,2506.760000C2102.740000,2513.130000,2057.070000,2539.910000,2034.330000,2553.260000L2034.260000,2501.500000C2056.900000,2488.210000,2083.670000,2472.480000,2091.330000,2467.920000C2106.150000,2459.090000,2119.980000,2447.730000,2124.980000,2440.340000L2126.160000,2438.740000C2134.390000,2428.600000,2140.770000,2417.670000,2145.090000,2406.290000C2150.820000,2390.950000,2151.150000,2369.980000,2151.150000,2369.780000L2150.960000,2224.850000C2140.240000,2235.860000,2127.010000,2245.110000,2118.750000,2250.410000L2100.400000,2263.890000L2098.890000,2279.590000L2099.010000,2369.710000C2098.820000,2374.420000,2097.960000,2381.140000,2097.030000,2384.990000L2096.630000,2386.680000L2095.970000,2388.290000C2093.690000,2393.840000,2090.350000,2399.330000,2086.070000,2404.610000L2082.060000,2409.570000L2080.480000,2410.910000C2078.410000,2412.660000,2072.790000,2417.210000,2065.110000,2421.780000C2059.970000,2424.850000,2045.590000,2433.310000,2021.330000,2447.560000L2010.440000,2453.950000L1999.540000,2447.590000C1975.850000,2433.770000,1960.810000,2424.960000,1955.690000,2421.940000C1947.910000,2417.330000,1942.270000,2412.770000,1940.210000,2411.030000L1938.660000,2409.720000L1934.670000,2404.810000C1930.360000,2399.540000,1927.020000,2394.070000,1924.730000,2388.530000L1924.050000,2386.910000L1923.630000,2385.190000C1922.690000,2381.350000,1921.800000,2374.650000,1921.630000,2369.960000L1921.610000,2369.080000L1921.520000,2299.880000C1935.310000,2308.050000,1954.810000,2319.280000,1965.450000,2325.380000L1965.450000,2327.560000L1965.500000,2368.500000C1965.570000,2369.700000,1965.760000,2371.310000,1965.940000,2372.580000C1966.450000,2373.480000,1967.220000,2374.630000,1968.340000,2375.990000L1969.590000,2377.530000C1971.210000,2378.810000,1974.070000,2380.910000,1977.660000,2383.040000C1981.900000,2385.550000,1993.050000,2392.080000,2010.360000,2402.190000C2027.950000,2391.840000,2038.720000,2385.510000,2043,2382.960000C2046.560000,2380.840000,2049.400000,2378.730000,2051.040000,2377.430000L2052.290000,2375.880000C2053.410000,2374.510000,2054.170000,2373.350000,2054.680000,2372.450000C2054.870000,2371.210000,2055.050000,2369.600000,2055.130000,2368.380000L2055.080000,2327.440000L2055.030000,2288.080000C2037.420000,2298.410000,2022.500000,2307.150000,2021.110000,2307.970000L2010.240000,2314.340000L1999.350000,2308C1997.970000,2307.190000,1983,2298.480000,1965.390000,2288.200000L1965.390000,2288.560000L1921.460000,2262.610000L1921.460000,2262.550000C1915.070000,2258.800000,1909.970000,2255.830000,1907.220000,2254.180000C1900.990000,2250.490000,1883.010000,2239.270000,1869.270000,2225.210000L1869.460000,2370.340000C1869.540000,2375.930000,1870.820000,2393.890000,1875.670000,2406.720000C1879.990000,2418,1886.390000,2428.910000,1894.660000,2439.030000L1895.840000,2440.630000C1900.860000,2448.020000,1914.720000,2459.330000,1929.560000,2468.120000C1937.240000,2472.670000,1964.030000,2488.320000,1986.710000,2501.550000L1986.780000,2553.310000C1964,2540.020000,1918.260000,2513.360000,1907.560000,2507.020000C1899.780000,2502.400000,1873.680000,2486.070000,1860.390000,2467.140000C1849.360000,2453.480000,1840.750000,2438.660000,1834.770000,2423.040000C1826.120000,2400.150000,1825.600000,2373.580000,1825.580000,2370.610000L1825.210000,2092.060000L1868.770000,2092C1867.430000,2105.560000,1868.530000,2119.320000,1870.090000,2130.140000C1870.430000,2132.560000,1870.800000,2134.850000,1871.160000,2136.940000L1871.050000,2136.940000C1871.680000,2140.740000,1872.490000,2144.660000,1873.550000,2148.410000C1873.940000,2150.060000,1874.210000,2150.980000,1874.210000,2150.980000L1874.340000,2151.010000C1874.650000,2151.990000,1874.990000,2152.950000,1875.340000,2153.880000C1877.230000,2158.830000,1879.560000,2163.710000,1882.240000,2168.490000C1883.470000,2170.410000,1896.420000,2189.980000,1921.390000,2208.510000L1921.370000,2192L1921.370000,2190.240000L1921.330000,2160.650000L1921.300000,2136.870000L1921.240000,2091.920000L2009.950000,2091.800000L2098.660000,2091.680000L2098.720000,2136.630000L2098.750000,2160.420000L2098.760000,2171.210000L2054.910000,2198.660000L2054.900000,2190.060000L2054.870000,2169.560000L2054.830000,2136.690000L2054.830000,2134.820000L2010.010000,2134.880000L1965.190000,2134.940000L1965.190000,2136.810000L1965.230000,2169.680000L1965.260000,2190.180000L1965.320000,2235.140000L1965.320000,2236.420000C1981.520000,2245.880000,1999.160000,2256.160000,2010.170000,2262.570000C2021.140000,2256.130000,2038.770000,2245.810000,2054.960000,2236.300000L2054.960000,2236.100000L2098.810000,2209.950000L2098.810000,2210.110000C2110.470000,2202.300000,2120.540000,2193.570000,2124.640000,2187.490000L2125.820000,2185.890000C2134.050000,2175.730000,2140.430000,2164.820000,2144.750000,2153.430000C2145.090000,2152.520000,2145.410000,2151.590000,2145.700000,2150.640000L2145.820000,2150.610000C2145.820000,2150.610000,2146.060000,2149.750000,2146.440000,2148.240000C2147.520000,2144.380000,2148.360000,2140.370000,2148.970000,2136.560000L2148.830000,2136.560000C2149.200000,2134.390000,2149.590000,2132.030000,2149.930000,2129.500000C2151.440000,2118.720000,2152.470000,2105.060000,2151.110000,2091.610000L2194.690000,2091.570000M2215.660000,2070.540000L2194.660000,2070.570000L2151.080000,2070.630000L2127.870000,2070.660000L2130.210000,2093.750000C2131.180000,2103.280000,2130.800000,2114.640000,2129.130000,2126.610000L2129.120000,2126.670000L2129.110000,2126.730000C2128.810000,2128.960000,2128.440000,2131.150000,2128.120000,2133.080000L2127.120000,2139C2126.890000,2140,2126.650000,2140.980000,2126.390000,2141.930000L2125.590000,2144.580000C2125.450000,2145.030000,2125.290000,2145.520000,2125.100000,2146.040000C2123.610000,2149.940000,2121.820000,2153.800000,2119.730000,2157.580000L2119.700000,2136.630000L2119.640000,2091.680000L2119.610000,2070.680000L2098.610000,2070.710000L2009.900000,2070.830000L1921.190000,2070.950000L1900.190000,2070.980000L1900.220000,2091.980000L1900.280000,2136.930000L1900.310000,2157.800000C1900.270000,2157.740000,1900.230000,2157.680000,1900.200000,2157.630000C1898.110000,2153.850000,1896.370000,2150.130000,1895,2146.560000C1894.770000,2145.930000,1894.540000,2145.280000,1894.360000,2144.710000L1893.900000,2143.270000L1893.870000,2143.140000L1893.750000,2142.720000C1893.430000,2141.590000,1893.130000,2140.380000,1892.840000,2139.110000L1891.840000,2133.370000C1891.460000,2131.190000,1891.150000,2129.200000,1890.880000,2127.270000L1890.870000,2127.220000L1890.860000,2127.170000C1889.120000,2115.110000,1888.700000,2103.670000,1889.650000,2094.090000L1891.940000,2070.990000L1868.730000,2071.020000L1825.170000,2071.080000L1804.170000,2071.110000L1804.200000,2092.110000L1804.570000,2370.660000L1804.570000,2370.720000L1804.570000,2370.780000C1804.590000,2374.100000,1805.080000,2403.940000,1815.110000,2430.490000L1815.130000,2430.530000L1815.150000,2430.580000C1821.840000,2448.050000,1831.420000,2464.620000,1843.620000,2479.830000C1858.940000,2501.260000,1885.880000,2518.600000,1896.830000,2525.100000C1906.160000,2530.620000,1942.020000,2551.540000,1965.760000,2565.380000L1976.200000,2571.470000L2007.830000,2589.920000L2007.780000,2553.300000L2007.710000,2501.540000L2007.690000,2489.500000L1997.290000,2483.430000C1986.290000,2477.020000,1949.680000,2455.650000,1940.260000,2450.070000C1925.310000,2441.220000,1915.270000,2431.890000,1913.210000,2428.860000L1912.980000,2428.520000L1912.730000,2428.190000L1911.550000,2426.590000L1911.240000,2426.180000L1910.910000,2425.780000C1904.080000,2417.410000,1898.820000,2408.490000,1895.280000,2399.280000C1891.880000,2390.260000,1890.550000,2375.650000,1890.450000,2370.190000L1890.310000,2268.470000C1892.770000,2270.040000,1894.860000,2271.310000,1896.450000,2272.250000C1897.500000,2272.880000,1898.840000,2273.670000,1900.440000,2274.610000L1900.440000,2274.630000L1900.460000,2274.640000L1900.490000,2299.930000L1900.580000,2369.130000L1900.580000,2369.330000L1900.580000,2369.530000L1900.600000,2370.410000L1900.600000,2370.600000L1900.610000,2370.790000C1900.840000,2376.830000,1901.930000,2384.990000,1903.200000,2390.200000L1903.620000,2391.910000L1904.010000,2393.520000L1904.650000,2395.050000L1905.310000,2396.630000C1908.370000,2404.030000,1912.760000,2411.260000,1918.360000,2418.110000L1922.340000,2423L1923.570000,2424.510000L1925.060000,2425.770000L1926.610000,2427.080000C1929.720000,2429.700000,1936.190000,2434.830000,1944.950000,2440.030000C1950.780000,2443.480000,1967.210000,2453.100000,1988.930000,2465.760000L1999.830000,2472.120000L2010.450000,2478.310000L2021.050000,2472.090000L2031.940000,2465.700000C2056.330000,2451.380000,2070.690000,2442.920000,2075.850000,2439.840000C2084.470000,2434.700000,2090.920000,2429.580000,2094,2426.990000L2095.600000,2425.640000L2097.120000,2424.360000L2098.370000,2422.820000L2102.380000,2417.860000C2107.970000,2410.960000,2112.340000,2403.710000,2115.380000,2396.310000L2116.040000,2394.700000L2116.670000,2393.170000L2117.050000,2391.570000L2117.440000,2389.910000C2118.690000,2384.730000,2119.740000,2376.790000,2119.990000,2370.570000L2120.010000,2370.140000L2120.010000,2369.710000L2119.890000,2280.610000L2120.400000,2275.280000L2130.020000,2268.220000L2130.160000,2369.650000C2130.060000,2374.650000,2129.040000,2389.240000,2125.450000,2398.910000C2121.920000,2408.180000,2116.670000,2417.140000,2109.860000,2425.530000L2109.540000,2425.920000L2109.240000,2426.320000L2108.060000,2427.920000L2107.810000,2428.260000L2107.580000,2428.610000C2105.530000,2431.650000,2095.500000,2441.020000,2080.590000,2449.900000C2073,2454.420000,2046.170000,2470.190000,2023.640000,2483.410000L2013.260000,2489.510000L2013.280000,2501.550000L2013.350000,2553.310000L2013.400000,2589.930000L2044.980000,2571.390000L2054.360000,2565.880000C2078.410000,2551.760000,2114.760000,2530.430000,2124.190000,2524.810000C2135.130000,2518.280000,2162.040000,2500.870000,2177.300000,2479.390000C2189.470000,2464.130000,2199.020000,2447.500000,2205.680000,2429.940000L2205.690000,2429.900000L2205.700000,2429.860000C2214.980000,2405.130000,2215.970000,2377.910000,2216.050000,2370.160000L2216.050000,2370.030000L2216.050000,2369.900000L2215.710000,2117.060000L2215.680000,2091.550000L2215.660000,2070.540000L2215.660000,2070.540000ZM1986.220000,2155.920000L2010.040000,2155.890000L2033.860000,2155.860000L2033.880000,2169.600000L2033.910000,2190.100000L2033.920000,2198.710000L2033.960000,2224.300000C2027.050000,2228.350000,2020.190000,2232.370000,2013.980000,2236.020000C2012.670000,2236.790000,2011.390000,2237.540000,2010.150000,2238.270000C2003,2234.110000,1994.720000,2229.280000,1986.320000,2224.380000L1986.270000,2190.180000L1986.240000,2169.680000L1986.220000,2155.920000L1986.220000,2155.920000ZM2010.280000,2338.660000L2020.860000,2332.460000L2031.730000,2326.090000L2034.080000,2324.710000L2034.080000,2327.470000L2034.130000,2363.740000C2033.540000,2364.120000,2032.910000,2364.520000,2032.230000,2364.930000C2028.970000,2366.870000,2021.510000,2371.260000,2010.320000,2377.850000C1999.340000,2371.430000,1991.690000,2366.950000,1988.350000,2364.970000C1987.690000,2364.580000,1987.070000,2364.190000,1986.490000,2363.810000L1986.440000,2327.530000L1986.440000,2325.380000L1986.450000,2325.380000L1986.450000,2324.770000C1987.680000,2325.490000,1988.480000,2325.950000,1988.750000,2326.110000L1988.770000,2326.120000L1988.790000,2326.130000L1999.680000,2332.470000L2010.280000,2338.660000L2010.280000,2338.660000Z" fill="rgb(55,26,69)" stroke="none" stroke-width="1"/></g></g></g><g id="ebg0C3PpHLa95_tr" transform="translate(1201.841675,2124.644165) rotate(0)"><g id="ebg0C3PpHLa95" transform="translate(-1201.841675,-2124.644165)"><g id="ebg0C3PpHLa96"><path id="ebg0C3PpHLa97" d="M1292.930000,2235.080000C1253.480000,2302.010000,1226.860000,2370.770000,1220.220000,2439.140000C1201.030000,2695.800000,1405.150000,2701.540000,1491.290000,2636.830000C1551.010000,2591.960000,1570.280000,2563.400000,1680.060000,2502.140000C1820.540000,2423.750000,1782.910000,2192.970000,1646.280000,2147.430000C1577.780000,2125.910000,1496.700000,2156.170000,1392.590000,2281.210000C1371.530000,2306.510000,1336.250000,2353.330000,1322.970000,2300.990000" fill="rgb(255,255,255)" stroke="none" stroke-width="1"/></g><g id="ebg0C3PpHLa98"><path id="ebg0C3PpHLa99" d="M1381.810000,2688.830000C1352.550000,2688.830000,1322.650000,2682.450000,1295.350000,2667.520000C1247.350000,2641.260000,1192.360000,2580.110000,1203,2437.860000C1209.510000,2370.840000,1234.750000,2299.800000,1278.060000,2226.320000C1282.900000,2218.110000,1293.480000,2215.370000,1301.690000,2220.210000C1309.900000,2225.050000,1312.640000,2235.630000,1307.790000,2243.850000C1267.060000,2312.960000,1243.370000,2379.230000,1237.380000,2440.820000C1230.080000,2538.520000,1255.850000,2606.570000,1311.910000,2637.240000C1368.330000,2668.090000,1441.090000,2652.960000,1480.910000,2623.040000C1497.830000,2610.320000,1511.680000,2598.740000,1525.080000,2587.540000C1559.610000,2558.670000,1592.220000,2531.390000,1671.640000,2487.070000C1727.920000,2455.670000,1757.430000,2393.400000,1750.590000,2320.510000C1743.620000,2246.340000,1699.510000,2183.370000,1640.810000,2163.810000C1572.650000,2142.390000,1495.680000,2184.360000,1405.840000,2292.260000L1402.230000,2296.620000C1383.720000,2319.060000,1360.680000,2346.960000,1335.300000,2341.280000C1321.270000,2338.130000,1311.490000,2326.010000,1306.220000,2305.240000C1303.880000,2296,1309.470000,2286.610000,1318.710000,2284.270000C1327.920000,2281.930000,1337.340000,2287.510000,1339.680000,2296.760000C1341.120000,2302.410000,1342.560000,2305.460000,1343.480000,2306.980000C1352,2303.270000,1368.940000,2282.730000,1375.600000,2274.660000L1379.310000,2270.180000C1479.100000,2150.330000,1568.110000,2104.800000,1651.440000,2130.980000C1724.300000,2155.260000,1776.600000,2228.360000,1784.950000,2317.290000C1793.110000,2404.210000,1757.040000,2478.950000,1688.460000,2517.230000C1611.870000,2559.960000,1580.470000,2586.230000,1547.220000,2614.030000C1533.490000,2625.510000,1519.300000,2637.380000,1501.640000,2650.640000C1471.410000,2673.350000,1427.390000,2688.830000,1381.810000,2688.830000Z" fill="rgb(55,26,69)" stroke="none" stroke-width="1"/></g><g id="ebg0C3PpHLa100" opacity="0.35"><path id="ebg0C3PpHLa101" d="M1491.270000,2636.810000C1550.990000,2591.960000,1570.270000,2563.400000,1680.050000,2502.120000C1725.490000,2476.800000,1752.290000,2435.510000,1763.120000,2389.740000C1749.300000,2413.220000,1729.140000,2431.400000,1701.640000,2441.230000C1627.890000,2467.650000,1550.490000,2495.570000,1491.280000,2523.460000C1362.890000,2583.850000,1243.120000,2584.190000,1221.830000,2425.440000C1221.200000,2429.980000,1220.700000,2434.550000,1220.230000,2439.130000C1201.020000,2695.810000,1405.130000,2701.530000,1491.270000,2636.810000Z" fill="rgb(55,26,69)" stroke="none" stroke-width="1"/></g><g id="ebg0C3PpHLa102"><path id="ebg0C3PpHLa103" d="M1344.630000,2680.930000C1341.290000,2680.930000,1337.940000,2679.640000,1335.410000,2677.070000C1212.500000,2552.230000,1323.250000,2328.390000,1328.030000,2318.920000C1331.250000,2312.540000,1339.040000,2309.980000,1345.410000,2313.190000C1351.790000,2316.410000,1354.360000,2324.190000,1351.150000,2330.570000C1350.070000,2332.720000,1244,2547.310000,1353.860000,2658.900000C1358.880000,2663.990000,1358.810000,2672.190000,1353.720000,2677.210000C1351.190000,2679.690000,1347.910000,2680.930000,1344.630000,2680.930000Z" fill="rgb(55,26,69)" stroke="none" stroke-width="1"/></g></g></g><g id="ebg0C3PpHLa104_tr" transform="translate(2819.382080,2123.711548) rotate(0)"><g id="ebg0C3PpHLa104" transform="translate(-2819.382080,-2123.711548)"><g id="ebg0C3PpHLa105"><path id="ebg0C3PpHLa106" d="M2729.950000,2235.080000C2769.400000,2302.010000,2796.020000,2370.770000,2802.660000,2439.140000C2821.850000,2695.800000,2617.730000,2701.540000,2531.590000,2636.830000C2471.870000,2591.960000,2452.600000,2563.400000,2342.820000,2502.140000C2202.340000,2423.750000,2239.970000,2192.970000,2376.600000,2147.430000C2445.100000,2125.910000,2526.180000,2156.170000,2630.290000,2281.210000C2651.350000,2306.510000,2686.630000,2353.330000,2699.910000,2300.990000" fill="rgb(255,255,255)" stroke="none" stroke-width="1"/></g><g id="ebg0C3PpHLa107" opacity="0.35"><path id="ebg0C3PpHLa108" d="M2531.590000,2636.810000C2471.870000,2591.960000,2452.590000,2563.400000,2342.810000,2502.120000C2297.370000,2476.800000,2270.570000,2435.510000,2259.740000,2389.740000C2273.560000,2413.220000,2293.720000,2431.400000,2321.220000,2441.230000C2394.970000,2467.650000,2472.370000,2495.570000,2531.580000,2523.460000C2659.970000,2583.850000,2779.740000,2584.190000,2801.030000,2425.440000C2801.660000,2429.980000,2802.160000,2434.550000,2802.630000,2439.130000C2821.830000,2695.810000,2617.730000,2701.530000,2531.590000,2636.810000Z" fill="rgb(55,26,69)" stroke="none" stroke-width="1"/></g><g id="ebg0C3PpHLa109"><path id="ebg0C3PpHLa110" d="M2641.060000,2688.830000C2595.480000,2688.830000,2551.470000,2673.350000,2521.220000,2650.630000C2503.570000,2637.370000,2489.370000,2625.500000,2475.640000,2614.010000C2442.390000,2586.210000,2410.990000,2559.950000,2334.410000,2517.210000C2265.830000,2478.940000,2229.760000,2404.200000,2237.920000,2317.270000C2246.270000,2228.330000,2298.570000,2155.240000,2371.150000,2131.050000C2454.770000,2104.780000,2543.770000,2150.310000,2643.570000,2270.160000L2647.280000,2274.640000C2653.940000,2282.710000,2670.880000,2303.260000,2679.400000,2306.960000C2680.320000,2305.440000,2681.760000,2302.390000,2683.200000,2296.740000C2685.550000,2287.500000,2694.930000,2281.910000,2704.170000,2284.250000C2713.410000,2286.590000,2719,2295.980000,2716.660000,2305.220000C2711.400000,2325.990000,2701.610000,2338.120000,2687.580000,2341.260000C2662.110000,2346.960000,2639.150000,2319.030000,2620.650000,2296.600000L2617.040000,2292.240000C2527.220000,2184.360000,2450.280000,2142.350000,2381.790000,2163.880000C2323.380000,2183.350000,2279.270000,2246.320000,2272.300000,2320.480000C2265.450000,2393.370000,2294.970000,2455.640000,2351.250000,2487.040000C2430.660000,2531.360000,2463.270000,2558.630000,2497.800000,2587.500000C2511.190000,2598.700000,2525.040000,2610.280000,2541.970000,2623C2581.790000,2652.910000,2654.550000,2668.060000,2710.970000,2637.200000C2767.030000,2606.530000,2792.800000,2538.480000,2785.460000,2440.400000C2779.510000,2379.200000,2755.820000,2312.930000,2715.090000,2243.810000C2710.250000,2235.600000,2712.990000,2225.020000,2721.200000,2220.180000C2729.410000,2215.340000,2739.990000,2218.070000,2744.840000,2226.290000C2788.140000,2299.770000,2813.380000,2370.820000,2819.850000,2437.450000C2830.520000,2580.080000,2775.530000,2641.240000,2727.540000,2667.490000C2700.220000,2682.450000,2670.320000,2688.830000,2641.060000,2688.830000Z" fill="rgb(55,26,69)" stroke="none" stroke-width="1"/></g><g id="ebg0C3PpHLa111"><path id="ebg0C3PpHLa112" d="M2675.830000,2680.930000C2672.550000,2680.930000,2669.270000,2679.690000,2666.750000,2677.210000C2661.660000,2672.190000,2661.590000,2664,2666.610000,2658.900000C2776.470000,2547.310000,2670.400000,2332.720000,2669.320000,2330.570000C2666.110000,2324.180000,2668.680000,2316.400000,2675.060000,2313.190000C2681.450000,2309.980000,2689.230000,2312.540000,2692.440000,2318.920000C2697.220000,2328.390000,2807.960000,2552.230000,2685.060000,2677.070000C2682.520000,2679.640000,2679.170000,2680.930000,2675.830000,2680.930000Z" fill="rgb(55,26,69)" stroke="none" stroke-width="1"/></g></g></g><g id="ebg0C3PpHLa113"><path id="ebg0C3PpHLa114" d="M1678.380000,2922.770000C1602.110000,2645.550000,1430.720000,2654.480000,1366.740000,2689.670000C1329.420000,2710.200000,1286.070000,2740.700000,1256.170000,2813.930000C1205.980000,2631.970000,961.980000,2651.990000,952.940000,2899.510000C947.620000,3045.170000,999.930000,3149.580000,1037.940000,3195.830000C1075.490000,3241.520000,1103.490000,3256.770000,1143.490000,3261.860000C1180.510000,3266.560000,1258.890000,3260.350000,1293.970000,3245.310000C1352.400000,3220.270000,1423.130000,3154.440000,1572.030000,3147.770000C1572.030000,3147.770000,1774.250000,3150.140000,2000,3148.670000C2225.740000,3150.140000,2427.970000,3147.770000,2427.970000,3147.770000C2576.870000,3154.440000,2647.610000,3220.270000,2706.030000,3245.310000C2741.110000,3260.350000,2819.490000,3266.560000,2856.510000,3261.860000C2896.510000,3256.780000,2924.510000,3241.530000,2962.060000,3195.830000C3000.070000,3149.580000,3052.380000,3045.170000,3047.060000,2899.510000C3038.020000,2651.990000,2794.020000,2631.970000,2743.830000,2813.930000C2713.930000,2740.700000,2670.580000,2710.200000,2633.260000,2689.670000C2569.280000,2654.470000,2397.890000,2645.550000,2321.620000,2922.770000L2321.620000,2922.770000C2321.620000,2939.940000,2307.700000,2953.860000,2290.530000,2953.860000L1710.530000,2953.860000C1693.190000,2953.860000,1678.960000,2940.110000,1678.380000,2922.770000L1678.380000,2922.770000Z" fill="rgb(255,255,255)" stroke="none" stroke-width="1"/></g><g id="ebg0C3PpHLa115" opacity="0.35"><path id="ebg0C3PpHLa116" d="M1225.390000,2755.280000C1222.950000,2750.160000,1221.360000,2746.500000,1220.600000,2744.740000C1221.440000,2746.500000,1223.080000,2750.120000,1225.390000,2755.280000Z" fill="rgb(55,26,69)" stroke="none" stroke-width="1"/></g><g id="ebg0C3PpHLa117" opacity="0.35"><path id="ebg0C3PpHLa118" d="M2772.780000,2755.280000C2775.090000,2750.110000,2776.730000,2746.500000,2777.570000,2744.740000C2776.810000,2746.500000,2775.210000,2750.160000,2772.780000,2755.280000Z" fill="rgb(55,26,69)" stroke="none" stroke-width="1"/></g><g id="ebg0C3PpHLa119" opacity="0.35"><path id="ebg0C3PpHLa120" d="M2962.060000,3195.830000C2924.510000,3241.520000,2896.500000,3256.770000,2856.520000,3261.850000C2819.480000,3266.550000,2741.110000,3260.340000,2706.040000,3245.300000C2647.580000,3220.270000,2576.860000,3154.420000,2427.980000,3147.740000C2427.980000,3147.740000,2225.720000,3150.130000,1999.990000,3148.660000C1774.250000,3150.130000,1572.040000,3147.740000,1572.040000,3147.740000C1423.120000,3154.420000,1352.390000,3220.270000,1293.980000,3245.300000C1258.910000,3260.340000,1180.500000,3266.550000,1143.500000,3261.850000C1103.480000,3256.770000,1075.510000,3241.520000,1037.960000,3195.830000C999.950000,3149.590000,947.620000,3045.190000,952.960000,2899.500000C953.420000,2886.610000,954.560000,2874.300000,956.240000,2862.630000C968.250000,2964.890000,1007.640000,3038.810000,1037.970000,3075.680000C1075.520000,3121.370000,1103.490000,3136.620000,1143.510000,3141.700000C1143.890000,3141.740000,1144.270000,3141.780000,1144.640000,3141.830000C1259.540000,3156.860000,1335.060000,3067.790000,1290.960000,2960.610000C1258.290000,2881.360000,1246.360000,2821.810000,1256.190000,2813.960000C1274.500000,2799.220000,1358.410000,3022.810000,1491.040000,3017.180000C1666,3009.750000,1658.780000,2862.630000,1658.780000,2862.630000C1658.780000,2862.630000,1668.310000,2874.770000,1679.110000,2894.630000C1724,2977.110000,1809.680000,3029.150000,1903.580000,3028.900000C1934.870000,3028.860000,1967.160000,3028.690000,2000.010000,3028.480000C2037.230000,3028.720000,2073.820000,3028.870000,2108.970000,3028.930000C2195.560000,3029.090000,2275.580000,2980.990000,2314.400000,2903.590000C2327,2878.460000,2339.440000,2862.630000,2339.440000,2862.630000C2339.440000,2862.630000,2332.170000,3009.750000,2507.180000,3017.180000C2639.810000,3022.810000,2664.840000,2838.160000,2758.970000,2775C2738.620000,2788.660000,2734.330000,2868.670000,2709.310000,2952.220000C2681.590000,3044.790000,2748.700000,3139.750000,2845.300000,3142.110000C2849.670000,3142.220000,2853.470000,3142.090000,2856.560000,3141.700000C2896.540000,3136.620000,2924.550000,3121.370000,2962.100000,3075.680000C2992.420000,3038.810000,3031.820000,2964.890000,3043.830000,2862.630000C3045.510000,2874.310000,3046.640000,2886.610000,3047.110000,2899.500000C3052.400000,3045.190000,3000.070000,3149.590000,2962.060000,3195.830000Z" fill="rgb(55,26,69)" stroke="none" stroke-width="1"/></g><g id="ebg0C3PpHLa121"><path id="ebg0C3PpHLa122" d="M1276.130000,2953.440000L1258.780000,2885C1255.930000,2873.780000,1252.680000,2862.740000,1250.010000,2851.680000C1247.430000,2840.560000,1244.500000,2829.670000,1242.970000,2818.300000L1242.900000,2817.760000C1241.760000,2809.290000,1247.700000,2801.510000,1256.170000,2800.370000C1263.190000,2799.430000,1269.750000,2803.370000,1272.430000,2809.570000C1277.310000,2820.880000,1280.500000,2832.770000,1282.610000,2844.760000C1284.860000,2856.740000,1285.730000,2868.930000,1286.190000,2881.040000C1286.660000,2893.160000,1286.460000,2905.290000,1285.630000,2917.370000C1284.690000,2929.460000,1283.300000,2941.480000,1280.510000,2953.440000C1280.230000,2954.650000,1279.020000,2955.410000,1277.800000,2955.120000C1276.950000,2954.920000,1276.330000,2954.270000,1276.130000,2953.480000L1276.130000,2953.440000Z" fill="rgb(55,26,69)" stroke="none" stroke-width="1"/></g><g id="ebg0C3PpHLa123"><path id="ebg0C3PpHLa124" d="M1208.880000,3279.200000C1199.350000,3279.200000,1191.620000,3271.470000,1191.620000,3261.940000C1191.620000,3253.970000,1197.030000,3247.260000,1204.370000,3245.270000C1205.880000,3244.850000,1207.450000,3244.630000,1209.010000,3244.630000C1218.540000,3244.630000,1226.270000,3252.360000,1226.270000,3261.890000C1226.270000,3269.850000,1220.880000,3276.560000,1213.550000,3278.550000C1212.030000,3278.970000,1210.450000,3279.200000,1208.880000,3279.200000Z" fill="rgb(55,26,69)" stroke="none" stroke-width="1"/></g><g id="ebg0C3PpHLa125"><path id="ebg0C3PpHLa126" d="M2719.480000,2953.440000C2716.690000,2941.480000,2715.300000,2929.460000,2714.360000,2917.370000C2713.520000,2905.290000,2713.320000,2893.160000,2713.800000,2881.040000C2714.260000,2868.920000,2715.130000,2856.740000,2717.380000,2844.760000C2719.480000,2832.770000,2722.680000,2820.880000,2727.560000,2809.570000C2730.940000,2801.730000,2740.050000,2798.110000,2747.890000,2801.500000C2754.400000,2804.310000,2757.990000,2811.050000,2757.100000,2817.750000L2757.020000,2818.300000C2755.490000,2829.670000,2752.570000,2840.560000,2749.980000,2851.680000C2747.310000,2862.750000,2744.060000,2873.790000,2741.210000,2885L2723.860000,2953.440000L2723.850000,2953.480000C2723.540000,2954.690000,2722.320000,2955.420000,2721.110000,2955.110000C2720.280000,2954.900000,2719.670000,2954.230000,2719.480000,2953.440000Z" fill="rgb(55,26,69)" stroke="none" stroke-width="1"/></g><g id="ebg0C3PpHLa127"><path id="ebg0C3PpHLa128" d="M2316.070000,2921.240000C2325.600000,2870.030000,2341.920000,2819.140000,2369.620000,2772.900000C2373.090000,2767.140000,2376.920000,2761.570000,2380.570000,2755.890000C2384.540000,2750.410000,2388.490000,2744.880000,2392.680000,2739.520000C2401.410000,2729.060000,2410.480000,2718.740000,2420.830000,2709.540000C2425.790000,2704.730000,2431.310000,2700.480000,2436.710000,2696.120000C2439.450000,2693.980000,2442.390000,2692.080000,2445.230000,2690.050000C2448.070000,2688.020000,2450.960000,2686.060000,2454,2684.300000C2465.810000,2676.760000,2478.630000,2670.690000,2491.850000,2665.720000C2518.350000,2655.710000,2547.260000,2651.990000,2575.640000,2654.260000C2589.850000,2655.500000,2603.940000,2658.330000,2617.690000,2662.880000C2624.550000,2665.260000,2631.350000,2667.900000,2638.010000,2671.340000C2641.490000,2673.070000,2644.410000,2674.730000,2647.310000,2676.370000C2650.250000,2677.990000,2653.170000,2679.810000,2656.100000,2681.530000C2679.550000,2695.580000,2701.690000,2713.930000,2719.170000,2735.760000C2736.760000,2757.550000,2750.040000,2782.060000,2760.260000,2807.230000L2726.680000,2809.220000C2732.400000,2789.640000,2740.400000,2770.470000,2751.560000,2752.880000C2762.670000,2735.310000,2776.920000,2719.380000,2793.930000,2706.760000C2810.890000,2694.110000,2830.560000,2684.890000,2851.300000,2680.030000C2872.040000,2675.180000,2893.860000,2674.700000,2914.730000,2678.870000C2935.610000,2683.040000,2955.460000,2691.590000,2972.860000,2703.420000C2990.300000,2715.230000,3005.260000,2730.230000,3017.460000,2746.890000C3029.710000,2763.590000,3038.830000,2782.080000,3045.920000,2801.010000C3047.540000,2805.790000,3049.590000,2810.470000,3050.830000,2815.340000L3054.880000,2829.870000C3056.160000,2834.720000,3056.960000,2839.650000,3058.020000,2844.540000C3059.060000,2849.440000,3060.030000,2854.340000,3060.570000,2859.280000L3062.530000,2874.070000C3063.020000,2879,3063.250000,2883.940000,3063.610000,2888.870000C3064.510000,2898.800000,3064.350000,2908.450000,3064.530000,2918.200000C3064.700000,2937.660000,3063.570000,2957.130000,3061.770000,2976.540000C3057.870000,3015.340000,3049.460000,3053.730000,3036.990000,3090.840000C3023.980000,3127.790000,3007.300000,3163.630000,2983.600000,3196.140000C2980.550000,3200.140000,2977.410000,3204.240000,2974.270000,3208.080000C2971.090000,3211.840000,2967.970000,3215.630000,2964.590000,3219.310000C2958,3226.730000,2950.950000,3233.960000,2943.220000,3240.780000C2935.520000,3247.600000,2927.130000,3254.030000,2917.900000,3259.530000C2908.700000,3265.040000,2898.660000,3269.500000,2888.420000,3272.680000C2878.160000,3275.880000,2867.850000,3277.840000,2857.680000,3279.090000C2847.150000,3280.350000,2837.270000,3280.600000,2827.370000,3280.640000C2807.620000,3280.680000,2788.240000,3279.310000,2768.800000,3277.070000C2759.080000,3275.840000,2749.380000,3274.510000,2739.620000,3272.570000C2729.850000,3270.670000,2720.090000,3268.510000,2710.040000,3265.180000C2705.150000,3263.600000,2699.530000,3261.450000,2695.190000,3259.340000C2690.550000,3257.230000,2685.950000,3255.080000,2681.650000,3252.760000C2677.210000,3250.510000,2672.910000,3248.200000,2668.730000,3245.840000L2656.210000,3238.810000C2639.720000,3229.420000,2623.660000,3220.280000,2607.300000,3212C2590.970000,3203.690000,2574.270000,3196.560000,2557.280000,3190.230000C2523.190000,3178.030000,2487.580000,3169.960000,2451.340000,3166.730000C2442.340000,3166.210000,2433.660000,3165.220000,2424.390000,3165.030000L2396.100000,3165.090000L2339.510000,3165.210000L2226.330000,3165.450000L1999.980000,3165.930000L1773.630000,3165.450000L1660.450000,3165.210000L1603.860000,3165.090000L1575.570000,3165.030000C1566.290000,3165.220000,1557.620000,3166.210000,1548.620000,3166.730000C1512.380000,3169.960000,1476.770000,3178.030000,1442.680000,3190.230000C1425.690000,3196.560000,1408.980000,3203.680000,1392.660000,3212C1376.300000,3220.280000,1360.240000,3229.420000,1343.750000,3238.810000L1331.230000,3245.840000C1327.050000,3248.200000,1322.750000,3250.510000,1318.310000,3252.760000C1314.010000,3255.080000,1309.410000,3257.230000,1304.770000,3259.340000C1300.430000,3261.450000,1294.800000,3263.600000,1289.920000,3265.180000C1279.860000,3268.510000,1270.100000,3270.670000,1260.330000,3272.570000C1250.570000,3274.510000,1240.860000,3275.840000,1231.150000,3277.070000C1211.710000,3279.310000,1192.330000,3280.680000,1172.580000,3280.640000C1162.670000,3280.600000,1152.800000,3280.360000,1142.270000,3279.090000C1132.100000,3277.840000,1121.780000,3275.880000,1111.530000,3272.680000C1101.290000,3269.510000,1091.260000,3265.040000,1082.050000,3259.530000C1072.820000,3254.040000,1064.430000,3247.600000,1056.730000,3240.780000C1049,3233.960000,1041.950000,3226.730000,1035.360000,3219.310000C1031.990000,3215.630000,1028.870000,3211.840000,1025.680000,3208.080000C1022.540000,3204.240000,1019.400000,3200.140000,1016.350000,3196.140000C992.650000,3163.630000,975.970000,3127.790000,962.960000,3090.840000C950.500000,3053.730000,942.080000,3015.340000,938.190000,2976.540000C936.390000,2957.130000,935.260000,2937.660000,935.430000,2918.200000C935.600000,2908.460000,935.450000,2898.810000,936.350000,2888.870000C936.720000,2883.930000,936.950000,2879,937.430000,2874.070000L939.390000,2859.280000C939.930000,2854.340000,940.890000,2849.440000,941.940000,2844.540000C942.990000,2839.650000,943.800000,2834.720000,945.080000,2829.870000L949.130000,2815.340000C950.370000,2810.470000,952.420000,2805.790000,954.040000,2801.010000C961.130000,2782.080000,970.250000,2763.580000,982.500000,2746.890000C994.700000,2730.220000,1009.660000,2715.230000,1027.100000,2703.420000C1044.500000,2691.600000,1064.360000,2683.040000,1085.240000,2678.870000C1106.110000,2674.700000,1127.930000,2675.180000,1148.670000,2680.030000C1169.430000,2684.870000,1189.060000,2694.180000,1205.970000,2706.860000C1222.930000,2719.520000,1237.120000,2735.470000,1248.160000,2753.040000C1259.240000,2770.630000,1267.220000,2789.780000,1272.800000,2809.350000L1240.180000,2807.410000C1250.530000,2782.340000,1263.920000,2757.970000,1281.560000,2736.370000C1299.130000,2714.760000,1321.140000,2696.550000,1344.510000,2682.570000C1347.430000,2680.870000,1350.330000,2679.030000,1353.260000,2677.410000C1356.140000,2675.750000,1359.050000,2674.080000,1362.490000,2672.370000C1369.080000,2668.940000,1375.830000,2666.280000,1382.630000,2663.900000C1396.270000,2659.330000,1410.280000,2656.480000,1424.420000,2655.160000C1452.640000,2652.500000,1481.550000,2655.780000,1508.250000,2665.370000C1521.560000,2670.180000,1534.510000,2676.100000,1546.460000,2683.510000C1549.540000,2685.230000,1552.460000,2687.170000,1555.340000,2689.170000C1558.220000,2691.170000,1561.200000,2693.040000,1563.980000,2695.150000C1569.480000,2699.440000,1575.050000,2703.690000,1580.090000,2708.470000C1600.790000,2727.030000,1618.060000,2748.710000,1631.990000,2771.860000C1660.030000,2818.220000,1676.170000,2869.560000,1683.930000,2921.260000C1684.410000,2924.420000,1682.220000,2927.380000,1679.060000,2927.850000C1676.410000,2928.250000,1673.910000,2926.780000,1672.890000,2924.430000L1672.840000,2924.310000C1662.560000,2900.610000,1652.600000,2877.200000,1641.400000,2854.610000C1630.200000,2832.030000,1617.800000,2810.370000,1603.830000,2790.160000C1600.340000,2785.110000,1596.480000,2780.370000,1592.960000,2775.370000C1589.140000,2770.650000,1585.330000,2765.900000,1581.400000,2761.310000C1573.240000,2752.420000,1565.020000,2743.610000,1555.890000,2735.990000C1537.930000,2720.440000,1517.820000,2707.750000,1495.910000,2699.960000C1474.170000,2691.820000,1450.670000,2688.550000,1427.550000,2690.330000C1416.010000,2691.280000,1404.560000,2693.500000,1393.710000,2697C1388.340000,2698.830000,1383.030000,2700.850000,1378.160000,2703.340000C1375.810000,2704.460000,1373.100000,2705.960000,1370.380000,2707.490000C1367.650000,2708.970000,1365.080000,2710.550000,1362.430000,2712.090000C1341.590000,2724.600000,1323.330000,2739.820000,1308.290000,2758.240000C1293.270000,2776.650000,1281.490000,2797.900000,1272.160000,2820.460000L1253.240000,2866.250000L1239.540000,2818.520000C1234.740000,2801.800000,1228.020000,2785.810000,1218.980000,2771.450000C1209.970000,2757.090000,1198.610000,2744.420000,1185.320000,2734.490000C1158.860000,2714.470000,1124.330000,2706.210000,1091.940000,2712.730000C1059.440000,2719.110000,1030.440000,2739.590000,1010.440000,2767.190000C1000.310000,2780.970000,992.560000,2796.660000,986.430000,2813.010000C985.040000,2817.170000,983.220000,2821.150000,982.160000,2825.450000L978.600000,2838.190000C977.470000,2842.460000,976.780000,2846.870000,975.830000,2851.200000C974.900000,2855.540000,974.030000,2859.890000,973.560000,2864.350000L971.790000,2877.630000C971.350000,2882.090000,971.160000,2886.590000,970.820000,2891.060000C969.980000,2899.940000,970.140000,2909.190000,969.970000,2918.310000C969.800000,2936.600000,970.880000,2954.860000,972.550000,2973.040000C976.190000,3009.370000,984.080000,3045.180000,995.630000,3079.630000C1007.630000,3113.810000,1023.290000,3147.110000,1044.180000,3175.690000C1046.860000,3179.180000,1049.460000,3182.590000,1052.280000,3186.050000C1055.200000,3189.490000,1058.080000,3192.990000,1061.090000,3196.270000C1067.030000,3202.960000,1073.190000,3209.260000,1079.630000,3214.920000C1092.490000,3226.390000,1106.270000,3234.970000,1121.830000,3239.710000C1129.600000,3242.130000,1137.890000,3243.750000,1146.450000,3244.800000C1154.670000,3245.810000,1163.700000,3246.080000,1172.660000,3246.100000C1190.670000,3246.150000,1209.010000,3244.850000,1227.070000,3242.770000C1245,3240.520000,1263.220000,3237.530000,1279.160000,3232.360000C1286.650000,3229.900000,1294.490000,3226.230000,1302.540000,3222.030000C1306.520000,3220.020000,1310.540000,3217.860000,1314.580000,3215.580000L1326.750000,3208.750000C1343.060000,3199.470000,1359.820000,3189.910000,1377.150000,3181.150000C1394.470000,3172.330000,1412.530000,3164.600000,1430.910000,3157.770000C1467.880000,3144.520000,1506.500000,3135.810000,1545.490000,3132.340000C1555.320000,3131.730000,1565.450000,3130.690000,1575.040000,3130.500000L1603.370000,3130.560000L1660.030000,3130.680000L1773.360000,3130.920000L2000.020000,3131.400000L2226.680000,3130.920000L2340.010000,3130.680000L2396.670000,3130.560000L2425,3130.500000C2434.580000,3130.690000,2444.720000,3131.730000,2454.550000,3132.340000C2493.530000,3135.820000,2532.160000,3144.520000,2569.130000,3157.770000C2587.510000,3164.600000,2605.570000,3172.340000,2622.890000,3181.150000C2640.220000,3189.910000,2656.980000,3199.470000,2673.290000,3208.750000L2685.460000,3215.580000C2689.500000,3217.860000,2693.520000,3220.010000,2697.500000,3222.030000C2705.550000,3226.220000,2713.390000,3229.900000,2720.880000,3232.360000C2736.820000,3237.530000,2755.040000,3240.520000,2772.970000,3242.770000C2791.020000,3244.850000,2809.370000,3246.140000,2827.380000,3246.100000C2836.340000,3246.080000,2845.370000,3245.810000,2853.590000,3244.800000C2862.150000,3243.750000,2870.440000,3242.130000,2878.210000,3239.710000C2893.770000,3234.960000,2907.560000,3226.390000,2920.410000,3214.920000C2926.840000,3209.250000,2933.010000,3202.960000,2938.950000,3196.270000C2941.960000,3192.990000,2944.840000,3189.490000,2947.760000,3186.050000C2950.590000,3182.590000,2953.180000,3179.180000,2955.860000,3175.690000C2976.750000,3147.110000,2992.410000,3113.810000,3004.410000,3079.630000C3015.960000,3045.180000,3023.850000,3009.370000,3027.490000,2973.040000C3029.160000,2954.860000,3030.240000,2936.600000,3030.070000,2918.310000C3029.900000,2909.180000,3030.060000,2899.940000,3029.220000,2891.060000C3028.880000,2886.580000,3028.690000,2882.080000,3028.250000,2877.630000L3026.480000,2864.350000C3026.020000,2859.890000,3025.140000,2855.540000,3024.210000,2851.200000C3023.270000,2846.870000,3022.580000,2842.460000,3021.440000,2838.190000L3017.880000,2825.450000C3016.820000,2821.150000,3015,2817.170000,3013.610000,2813.010000C3007.480000,2796.660000,2999.740000,2780.970000,2989.610000,2767.190000C2969.600000,2739.580000,2940.600000,2719.110000,2908.100000,2712.730000C2875.720000,2706.210000,2841.130000,2714.440000,2814.790000,2734.590000C2788.100000,2754.550000,2770.190000,2785.310000,2760.980000,2818.650000L2747.350000,2868.050000L2727.400000,2820.650000C2717.950000,2798.180000,2706.060000,2777.080000,2690.990000,2758.860000C2675.860000,2740.660000,2657.730000,2725.590000,2636.970000,2713.130000C2634.330000,2711.600000,2631.780000,2710,2629.070000,2708.520000C2626.360000,2706.980000,2623.660000,2705.470000,2621.360000,2704.360000C2616.560000,2701.870000,2611.310000,2699.850000,2605.990000,2698.010000C2595.250000,2694.480000,2583.880000,2692.240000,2572.410000,2691.220000C2549.450000,2689.050000,2525.950000,2691.880000,2504,2699.590000C2481.930000,2707.070000,2461.460000,2719.450000,2443.210000,2734.910000C2433.920000,2742.460000,2425.550000,2751.250000,2417.380000,2760.230000C2413.390000,2764.820000,2409.480000,2769.530000,2405.570000,2774.240000C2401.930000,2779.190000,2398.110000,2784.010000,2394.590000,2789.080000C2380.440000,2809.340000,2367.990000,2831.140000,2357.040000,2853.920000C2346.110000,2876.710000,2336.520000,2900.320000,2327.200000,2924.290000L2327.160000,2924.390000C2326,2927.360000,2322.660000,2928.830000,2319.690000,2927.680000C2317.030000,2926.660000,2315.570000,2923.920000,2316.070000,2921.240000Z" fill="rgb(55,26,69)" stroke="none" stroke-width="1"/></g><g id="ebg0C3PpHLa129"><path id="ebg0C3PpHLa130" d="M2962.060000,3195.830000C2924.510000,3241.520000,2896.500000,3256.770000,2856.520000,3261.850000C2840.060000,3263.950000,2815.490000,3263.870000,2790.120000,3261.850000C2790.120000,3261.850000,2790.080000,3261.850000,2790.040000,3261.810000C2727.170000,3245.100000,2759.760000,3155.220000,2777.150000,3053.210000C2793.110000,2959.510000,2766.480000,2887.910000,2819.820000,2790.600000C2884.540000,2672.500000,2968.870000,2722.440000,2973.910000,2725.550000C2974.040000,2725.590000,2974.120000,2725.680000,2974.160000,2725.720000C3014.230000,2758.440000,3044,2816.010000,3047.070000,2899.500000C3052.400000,3045.190000,3000.070000,3149.590000,2962.060000,3195.830000Z" fill="rgb(175,175,178)" stroke="none" stroke-width="1"/></g><g id="ebg0C3PpHLa131"><path id="ebg0C3PpHLa132" d="M1209.050000,3261.890000L1209.010000,3261.890000C1183.980000,3263.860000,1159.750000,3263.910000,1143.490000,3261.850000C1103.470000,3256.770000,1075.500000,3241.520000,1037.950000,3195.830000C999.940000,3149.590000,947.610000,3045.190000,952.950000,2899.500000C956.020000,2815.510000,986.130000,2757.760000,1026.570000,2725.130000C1026.610000,2725.090000,1026.650000,2725.090000,1026.700000,2725.050000C1030.230000,2722.820000,1114.850000,2671.380000,1180.200000,2790.610000C1233.540000,2887.920000,1206.910000,2959.520000,1222.870000,3053.220000C1240.220000,3155.180000,1271.840000,3245.090000,1209.050000,3261.890000Z" fill="rgb(175,175,178)" stroke="none" stroke-width="1"/></g><g id="ebg0C3PpHLa133" opacity="0.7"><path id="ebg0C3PpHLa134" d="M1180.200000,2790.600000C1212.830000,2850.150000,1215.520000,2900.090000,1216.400000,2951.370000C1212.870000,2916.130000,1204.260000,2879.850000,1181.960000,2839.150000C1115.180000,2717.320000,1028.710000,2769.900000,1025.100000,2772.160000C1025.060000,2772.200000,1025.020000,2772.200000,1024.970000,2772.240000C989.400000,2800.970000,961.640000,2848.720000,952.610000,2916.330000C952.610000,2910.790000,952.740000,2905.160000,952.950000,2899.490000C956.020000,2815.500000,986.130000,2757.750000,1026.570000,2725.120000C1026.610000,2725.080000,1026.650000,2725.080000,1026.700000,2725.040000C1030.230000,2722.820000,1114.850000,2671.370000,1180.200000,2790.600000Z" fill="rgb(255,255,255)" stroke="none" stroke-width="1"/></g><g id="ebg0C3PpHLa135"><path id="ebg0C3PpHLa136" d="M1219.220000,3025.280000C1216.740000,2999.580000,1216.780000,2975.300000,1216.410000,2951.360000C1218.840000,2976.140000,1218.800000,3000.380000,1219.220000,3025.280000Z" fill="rgb(175,175,178)" stroke="none" stroke-width="1"/></g><g id="ebg0C3PpHLa137" opacity="0.35"><path id="ebg0C3PpHLa138" d="M1209.050000,3261.890000L1209.010000,3261.890000C1183.980000,3263.860000,1159.750000,3263.910000,1143.490000,3261.850000C1103.470000,3256.770000,1075.500000,3241.520000,1037.950000,3195.830000C1016.780000,3170.090000,991.170000,3126.280000,973.570000,3067.360000C976.430000,3071.270000,979.240000,3074.920000,981.970000,3078.240000C1019.520000,3123.930000,1047.330000,3140.580000,1087.510000,3144.260000C1159.600000,3150.870000,1211.190000,3083.530000,1220.100000,3033.470000C1220.810000,3039.940000,1221.740000,3046.530000,1222.870000,3053.210000C1240.220000,3155.180000,1271.840000,3245.090000,1209.050000,3261.890000Z" fill="rgb(55,26,69)" stroke="none" stroke-width="1"/></g><g id="ebg0C3PpHLa139"><path id="ebg0C3PpHLa140" d="M1205.460000,3282.270000L1197.160000,3274.440000C1193.240000,3270.740000,1191.440000,3265.640000,1191.790000,3260.660000L1191.790000,3245.940000L1207.350000,3244.710000C1207.550000,3244.690000,1207.750000,3244.680000,1207.950000,3244.660000C1241.560000,3242,1271.150000,3236.310000,1287.160000,3229.440000C1300.620000,3223.670000,1315.010000,3215.460000,1331.670000,3205.960000C1383.610000,3176.320000,1454.760000,3135.720000,1571.260000,3130.500000L1571.750000,3130.480000L1572.240000,3130.480000C1574.260000,3130.500000,1776.890000,3132.860000,1999.870000,3131.410000C2223.080000,3132.860000,2425.750000,3130.510000,2427.770000,3130.480000L2428.260000,3130.480000L2428.750000,3130.500000C2545.200000,3135.720000,2616.330000,3176.310000,2668.280000,3205.940000C2684.960000,3215.450000,2699.370000,3223.670000,2712.840000,3229.440000C2728.820000,3236.290000,2758.190000,3241.960000,2791.410000,3244.600000C2800.920000,3245.360000,2808.010000,3253.670000,2807.250000,3263.180000C2806.500000,3272.680000,2798.160000,3279.770000,2788.680000,3279.020000C2771.030000,3277.610000,2726.980000,3273.070000,2699.250000,3261.170000C2683.980000,3254.630000,2668.050000,3245.540000,2651.180000,3235.920000C2599.640000,3206.520000,2535.530000,3169.940000,2427.690000,3165.010000C2416.320000,3165.140000,2217.800000,3167.350000,1999.880000,3165.930000C1782.200000,3167.350000,1583.710000,3165.140000,1572.340000,3165.010000C1464.440000,3169.950000,1400.330000,3206.540000,1348.790000,3235.940000C1331.950000,3245.550000,1316.040000,3254.630000,1300.780000,3261.170000C1274.370000,3272.510000,1232.850000,3277.200000,1213.380000,3278.860000L1205.460000,3282.270000Z" fill="rgb(55,26,69)" stroke="none" stroke-width="1"/></g><g id="ebg0C3PpHLa141"><path id="ebg0C3PpHLa142" d="M1026.720000,2742.310000C1020.390000,2742.310000,1014.290000,2738.810000,1011.270000,2732.760000C1007.350000,2724.920000,1009.960000,2715.530000,1017.030000,2710.750000C1019.920000,2708.770000,1023.420000,2707.650000,1026.920000,2707.650000C1036.450000,2707.650000,1044.180000,2715.380000,1044.180000,2724.910000C1044.180000,2731.340000,1040.660000,2736.940000,1035.450000,2739.920000C1035.110000,2740.120000,1034.770000,2740.310000,1034.420000,2740.480000C1031.940000,2741.720000,1029.310000,2742.310000,1026.720000,2742.310000Z" fill="rgb(55,26,69)" stroke="none" stroke-width="1"/></g><g id="ebg0C3PpHLa143"><path id="ebg0C3PpHLa144" d="M2973.900000,2742.810000C2969.480000,2742.810000,2965.070000,2741.130000,2961.690000,2737.750000L2973.180000,2726.260000L2981.720000,2710.120000C2983.240000,2710.920000,2984.880000,2712.120000,2986.100000,2713.340000C2992.840000,2720.080000,2992.840000,2731.010000,2986.100000,2737.750000C2982.740000,2741.120000,2978.320000,2742.810000,2973.900000,2742.810000Z" fill="rgb(55,26,69)" stroke="none" stroke-width="1"/></g><g id="ebg0C3PpHLa145" opacity="0.7"><path id="ebg0C3PpHLa146" d="M2817.880000,2790.600000C2785.250000,2850.150000,2782.560000,2900.090000,2781.680000,2951.370000C2785.210000,2916.130000,2793.820000,2879.850000,2816.120000,2839.150000C2882.900000,2717.320000,2969.370000,2769.900000,2972.980000,2772.160000C2973.020000,2772.200000,2973.060000,2772.200000,2973.110000,2772.240000C3008.680000,2800.970000,3036.440000,2848.720000,3045.470000,2916.330000C3045.470000,2910.790000,3045.340000,2905.160000,3045.130000,2899.490000C3042.060000,2815.500000,3011.950000,2757.750000,2971.510000,2725.120000C2971.470000,2725.080000,2971.430000,2725.080000,2971.380000,2725.040000C2967.850000,2722.820000,2883.230000,2671.370000,2817.880000,2790.600000Z" fill="rgb(255,255,255)" stroke="none" stroke-width="1"/></g><g id="ebg0C3PpHLa147" opacity="0.35"><path id="ebg0C3PpHLa148" d="M2789.030000,3261.890000L2789.070000,3261.890000C2814.100000,3263.860000,2838.330000,3263.910000,2854.590000,3261.850000C2894.610000,3256.770000,2922.580000,3241.520000,2960.130000,3195.830000C2981.300000,3170.090000,3006.920000,3126.280000,3024.510000,3067.360000C3021.650000,3071.270000,3018.840000,3074.920000,3016.110000,3078.240000C2978.560000,3123.930000,2950.750000,3140.580000,2910.570000,3144.260000C2838.480000,3150.870000,2786.890000,3083.530000,2777.980000,3033.470000C2777.270000,3039.940000,2776.340000,3046.530000,2775.210000,3053.210000C2757.870000,3155.180000,2726.240000,3245.090000,2789.030000,3261.890000Z" fill="rgb(55,26,69)" stroke="none" stroke-width="1"/></g><g id="ebg0C3PpHLa149"><g id="ebg0C3PpHLa150"><path id="ebg0C3PpHLa151" d="M3037.920000,2848.170000C3037.680000,2848.170000,3037.440000,2848.170000,3037.190000,2848.150000L2804.230000,2837.270000C2795.750000,2836.870000,2789.210000,2829.680000,2789.600000,2821.210000C2790,2812.740000,2797.150000,2806.210000,2805.660000,2806.580000L3038.620000,2817.460000C3047.100000,2817.860000,3053.640000,2825.050000,3053.250000,2833.520000C3052.870000,2841.760000,3046.080000,2848.170000,3037.920000,2848.170000Z" fill="rgb(55,26,69)" stroke="none" stroke-width="1"/></g><g id="ebg0C3PpHLa152"><path id="ebg0C3PpHLa153" d="M3047.240000,2950.640000C3046.980000,2950.640000,3046.710000,2950.640000,3046.440000,2950.620000L2783.750000,2937.270000C2775.280000,2936.840000,2768.750000,2929.620000,2769.180000,2921.140000C2769.610000,2912.670000,2776.740000,2906.140000,2785.310000,2906.580000L3048,2919.930000C3056.470000,2920.360000,3063,2927.580000,3062.570000,2936.060000C3062.160000,2944.270000,3055.370000,2950.640000,3047.240000,2950.640000Z" fill="rgb(55,26,69)" stroke="none" stroke-width="1"/></g><g id="ebg0C3PpHLa154"><path id="ebg0C3PpHLa155" d="M3032.290000,3061.430000C3032.030000,3061.430000,3031.760000,3061.430000,3031.490000,3061.410000L2779.170000,3048.600000C2770.700000,3048.170000,2764.180000,3040.950000,2764.600000,3032.480000C2765.030000,3024.010000,2772.240000,3017.450000,2780.730000,3017.910000L3033.050000,3030.720000C3041.520000,3031.150000,3048.050000,3038.370000,3047.620000,3046.840000C3047.200000,3055.060000,3040.420000,3061.430000,3032.290000,3061.430000Z" fill="rgb(55,26,69)" stroke="none" stroke-width="1"/></g><g id="ebg0C3PpHLa156"><path id="ebg0C3PpHLa157" d="M2984.040000,3179.910000C2983.790000,3179.910000,2983.540000,3179.910000,2983.290000,3179.890000L2757.260000,3169.010000C2748.780000,3168.600000,2742.250000,3161.400000,2742.650000,3152.930000C2743.050000,3144.700000,2749.840000,3138.300000,2757.980000,3138.300000C2758.230000,3138.300000,2758.480000,3138.300000,2758.730000,3138.320000L2984.760000,3149.200000C2993.240000,3149.610000,2999.770000,3156.810000,2999.370000,3165.280000C2998.980000,3173.510000,2992.190000,3179.910000,2984.040000,3179.910000Z" fill="rgb(55,26,69)" stroke="none" stroke-width="1"/></g><g id="ebg0C3PpHLa158"><path id="ebg0C3PpHLa159" d="M2826.950000,3278.760000C2815.370000,3278.760000,2802.650000,3278.250000,2789.520000,3277.220000L2783.480000,3277.220000L2781.740000,3275.380000C2721.220000,3255.790000,2736.130000,3181.790000,2751.900000,3103.550000C2755.350000,3086.420000,2758.920000,3068.700000,2762,3050.630000C2767.340000,3019.310000,2767.740000,2989.910000,2768.130000,2961.480000C2768.890000,2906.730000,2769.670000,2850.120000,2806.340000,2783.220000C2831.180000,2737.890000,2861.980000,2710.090000,2897.870000,2700.600000C2938.190000,2689.940000,2971.730000,2706.640000,2980.240000,2711.460000L2982.400000,2712.160000L2984.550000,2714.380000C3031.830000,2753.390000,3059.470000,2818.890000,3062.410000,2898.940000C3067.550000,3039.410000,3020.070000,3149.450000,2973.920000,3205.590000C2935.910000,3251.850000,2904.620000,3271.230000,2858.450000,3277.090000C2849.760000,3278.200000,2838.980000,3278.760000,2826.950000,3278.760000ZM2792.900000,3246.660000C2816.960000,3248.500000,2839.920000,3248.490000,2854.570000,3246.620000C2887.790000,3242.400000,2912.870000,3231.500000,2950.180000,3186.090000L2950.180000,3186.090000C2964.890000,3168.200000,3037.930000,3070.320000,3031.700000,2900.070000C3029.090000,2829.040000,3005.480000,2771.630000,2965.190000,2738.260000C2960.820000,2735.740000,2935.660000,2722.420000,2905.720000,2730.320000C2878.290000,2737.570000,2853.920000,2760.340000,2833.280000,2798C2800.280000,2858.210000,2799.580000,2908.580000,2798.850000,2961.920000C2798.440000,2991.520000,2798.020000,3022.130000,2792.280000,3055.810000C2789.120000,3074.340000,2785.510000,3092.280000,2782.010000,3109.640000C2765.800000,3190.110000,2758.270000,3236.470000,2792.900000,3246.660000Z" fill="rgb(55,26,69)" stroke="none" stroke-width="1"/></g></g><g id="ebg0C3PpHLa160"><path id="ebg0C3PpHLa161" d="M1515.160000,3166.530000C1512.490000,3166.530000,1509.810000,3165.710000,1507.500000,3164.010000C1501.740000,3159.770000,1500.510000,3151.670000,1504.740000,3145.910000C1505.230000,3145.240000,1556.010000,3073.360000,1540.480000,2936.660000C1530.710000,2850.720000,1495.360000,2784.010000,1440.920000,2748.800000C1404.840000,2725.450000,1364.410000,2719.170000,1327.080000,2731.110000C1320.290000,2733.270000,1312.990000,2729.530000,1310.810000,2722.720000C1308.630000,2715.910000,1312.390000,2708.630000,1319.200000,2706.450000C1363.400000,2692.330000,1412.890000,2699.840000,1454.980000,2727.070000C1516.040000,2766.570000,1555.540000,2839.970000,1566.200000,2933.740000C1582.970000,3081.290000,1527.950000,3158.060000,1525.600000,3161.260000C1523.060000,3164.700000,1519.140000,3166.530000,1515.160000,3166.530000Z" fill="rgb(55,26,69)" stroke="none" stroke-width="1"/></g><g id="ebg0C3PpHLa162"><path id="ebg0C3PpHLa163" d="M2481.920000,3166.530000C2477.950000,3166.530000,2474.020000,3164.700000,2471.480000,3161.250000C2469.130000,3158.050000,2414.110000,3081.280000,2430.880000,2933.730000C2441.530000,2839.950000,2481.030000,2766.550000,2542.100000,2727.060000C2584.190000,2699.830000,2633.690000,2692.310000,2677.890000,2706.440000C2684.700000,2708.620000,2688.460000,2715.900000,2686.280000,2722.710000C2684.100000,2729.530000,2676.800000,2733.270000,2670.010000,2731.100000C2632.680000,2719.170000,2592.250000,2725.450000,2556.170000,2748.790000C2501.740000,2784,2466.380000,2850.720000,2456.610000,2936.650000C2440.980000,3074.220000,2491.830000,3145.200000,2492.350000,3145.900000C2496.580000,3151.660000,2495.350000,3159.760000,2489.590000,3164C2487.270000,3165.710000,2484.580000,3166.530000,2481.920000,3166.530000Z" fill="rgb(55,26,69)" stroke="none" stroke-width="1"/></g><g id="ebg0C3PpHLa164"><path id="ebg0C3PpHLa165" d="M1173.030000,3278.750000C1161.050000,3278.750000,1150.290000,3278.200000,1141.580000,3277.090000C1095.410000,3271.230000,1064.110000,3251.850000,1026.100000,3205.580000C979.950000,3149.440000,932.470000,3039.390000,937.620000,2898.930000C940.560000,2818.380000,968.500000,2752.630000,1016.320000,2713.670000L1017.760000,2712.330000L1019.210000,2711.620000C1025.460000,2707.840000,1059.270000,2689.210000,1101.410000,2700.120000C1137.550000,2709.480000,1168.600000,2737.430000,1193.690000,2783.210000C1230.360000,2850.110000,1231.140000,2906.720000,1231.900000,2961.460000C1232.300000,2989.890000,1232.700000,3019.290000,1238.040000,3050.620000C1241,3068.020000,1244.390000,3085.100000,1247.660000,3101.620000C1263.720000,3182.610000,1278.890000,3259.110000,1213.050000,3276.730000L1211.100000,3277.250000L1209.640000,3277.250000C1196.810000,3278.250000,1184.380000,3278.750000,1173.030000,3278.750000ZM1209.060000,3261.890000L1209.110000,3261.890000L1209.060000,3261.890000ZM1034.950000,2738.120000C994.560000,2771.500000,970.910000,2828.930000,968.310000,2900.060000C962.070000,3070.310000,1035.120000,3168.180000,1049.830000,3186.080000C1087.150000,3231.500000,1112.230000,3242.400000,1145.440000,3246.610000C1160.030000,3248.460000,1182.720000,3248.490000,1206.370000,3246.690000C1241.190000,3236.220000,1233.680000,3189.180000,1217.500000,3107.600000C1214.180000,3090.880000,1210.760000,3073.590000,1207.730000,3055.780000C1201.990000,3022.110000,1201.570000,2991.490000,1201.160000,2961.890000C1200.420000,2908.560000,1199.720000,2858.180000,1166.730000,2797.980000C1145.880000,2759.930000,1121.300000,2737.020000,1093.690000,2729.860000C1065.870000,2722.660000,1042.330000,2733.940000,1036.360000,2737.190000L1035.960000,2737.620000L1034.950000,2738.120000Z" fill="rgb(55,26,69)" stroke="none" stroke-width="1"/></g><g id="ebg0C3PpHLa166"><path id="ebg0C3PpHLa167" d="M962.140000,2848.090000C953.980000,2848.090000,947.190000,2841.680000,946.800000,2833.450000C946.400000,2824.970000,952.950000,2817.780000,961.430000,2817.380000L1194.310000,2806.460000C1202.990000,2806.050000,1209.980000,2812.610000,1210.370000,2821.090000C1210.770000,2829.570000,1204.220000,2836.760000,1195.740000,2837.160000L962.860000,2848.080000C962.620000,2848.080000,962.380000,2848.090000,962.140000,2848.090000Z" fill="rgb(55,26,69)" stroke="none" stroke-width="1"/></g><g id="ebg0C3PpHLa168"><path id="ebg0C3PpHLa169" d="M952.770000,2950.560000C944.640000,2950.560000,937.860000,2944.190000,937.440000,2935.980000C937.010000,2927.500000,943.530000,2920.280000,952.010000,2919.850000L1214.710000,2906.500000C1223.300000,2906.060000,1230.400000,2912.590000,1230.840000,2921.060000C1231.270000,2929.540000,1224.750000,2936.760000,1216.270000,2937.190000L953.570000,2950.540000C953.300000,2950.560000,953.030000,2950.560000,952.770000,2950.560000Z" fill="rgb(55,26,69)" stroke="none" stroke-width="1"/></g><g id="ebg0C3PpHLa170"><path id="ebg0C3PpHLa171" d="M967.680000,3061.310000C959.550000,3061.310000,952.770000,3054.940000,952.350000,3046.730000C951.920000,3038.260000,958.440000,3031.040000,966.920000,3030.610000L1219.280000,3017.800000C1227.800000,3017.380000,1234.970000,3023.890000,1235.410000,3032.370000C1235.840000,3040.840000,1229.320000,3048.060000,1220.840000,3048.490000L968.480000,3061.300000C968.210000,3061.300000,967.950000,3061.310000,967.680000,3061.310000Z" fill="rgb(55,26,69)" stroke="none" stroke-width="1"/></g><g id="ebg0C3PpHLa172"><path id="ebg0C3PpHLa173" d="M1015.940000,3179.820000C1007.800000,3179.820000,1001,3173.420000,1000.610000,3165.200000C1000.200000,3156.720000,1006.740000,3149.520000,1015.220000,3149.110000L1240.960000,3138.230000C1249.400000,3137.820000,1256.640000,3144.360000,1257.040000,3152.840000C1257.450000,3161.320000,1250.910000,3168.520000,1242.430000,3168.930000L1016.690000,3179.810000C1016.440000,3179.820000,1016.180000,3179.820000,1015.940000,3179.820000Z" fill="rgb(55,26,69)" stroke="none" stroke-width="1"/></g></g></g></g></g></svg>