<?xml version="1.0" encoding="utf-8"?>
<!-- Generator: Adobe Illustrator 23.0.1, SVG Export Plug-In . SVG Version: 6.00 Build 0)  -->
<svg version="1.1" id="Capa_1" xmlns="http://www.w3.org/2000/svg" xmlns:xlink="http://www.w3.org/1999/xlink" x="0px" y="0px"
	 viewBox="0 0 300 300" style="enable-background:new 0 0 300 300;" xml:space="preserve">
<style type="text/css">
	.st0{display:none;fill:url(#SVGID_1_);}
	.st1{fill:url(#SVGID_2_);}
	.st2{fill:url(#SVGID_3_);}
	.st3{fill:url(#SVGID_4_);}
</style>
<radialGradient id="SVGID_1_" cx="177.265" cy="96.1673" r="172.0948" gradientUnits="userSpaceOnUse">
	<stop  offset="0" style="stop-color:#F2935A"/>
	<stop  offset="1" style="stop-color:#9C4511"/>
</radialGradient>
<circle class="st0" cx="149.63" cy="151.63" r="148.37"/>
<g>
	<radialGradient id="SVGID_2_" cx="175.6291" cy="96.5352" r="165.8742" gradientUnits="userSpaceOnUse">
		<stop  offset="0" style="stop-color:#5AB0F2"/>
		<stop  offset="1" style="stop-color:#114D9C"/>
	</radialGradient>
	<circle class="st1" cx="148.99" cy="149.99" r="143.01"/>
	<radialGradient id="SVGID_3_" cx="198.9024" cy="80.9026" r="170.9649" gradientUnits="userSpaceOnUse">
		<stop  offset="0" style="stop-color:#9AFA87"/>
		<stop  offset="1" style="stop-color:#34A42D"/>
	</radialGradient>
	<path class="st2" d="M199.21,172.77c-8.9-5.52-30.08-25.16-38.36-29.77c-8.29-4.6-20.25-3.99-27.01-7.98
		c-6.75-3.99-16.88-6.75-19.95-13.2c-3.07-6.45,0-21.79-5.22-24.24c-5.22-2.46-20.25,7.67-25.47,5.83
		c-5.22-1.84-6.75-8.59-5.83-12.89c0.92-4.3,0.61-15.04,8.9-13.2c8.29,1.84,29.16,9.82,42.04,3.38
		c12.89-6.45,25.16-24.55,19.03-42.96c-4.93-14.78-26.23-19.48-39.38-24.71C83.99,20.19,62.7,33.5,45.83,51.1
		c-0.31,11.59-0.12,36.05,6.08,47.09c8.29,14.73,25.16,11.97,36.83,18.72c11.66,6.75,6.75,7.37,16.57,11.97
		c9.82,4.6,15.96,5.52,16.88,7.98c0.92,2.46-11.36,11.05-11.97,25.47c-0.61,14.42-0.52,29.15,12.02,39.9
		c12.53,10.74,11.61,19.64,6.4,34.37c-5.22,14.73-7.37,33.14-2.46,37.13c4.91,3.99,11.36,2.15,11.66-4.6
		c0.31-6.75,2.46-10.74,12.28-14.12c9.82-3.38,12.58-2.03,15.96-10.07c3.38-8.04,12.58-22.46,22.1-31.67
		c9.51-9.21,18.11-18.11,18.72-25.16C207.5,181.05,208.11,178.29,199.21,172.77z"/>
	<radialGradient id="SVGID_4_" cx="282.4324" cy="60.9818" r="60.2079" gradientUnits="userSpaceOnUse">
		<stop  offset="0" style="stop-color:#9AFA87"/>
		<stop  offset="1" style="stop-color:#34A42D"/>
	</radialGradient>
	<path class="st3" d="M236.55,37.07c-0.54,7.39-0.62,13.36-3.68,17.03c-4.09,4.91,7.77,17.2,15.96,23.74
		c8.19,6.54,15.15,8.59,18.01,20.46c2.86,11.86-9.42,20.04-6.96,25.37c2.46,5.32,12.28,10.22,17.19,0
		c2.44-5.07,5.38-11.77,8.1-17.32C276.26,78.56,259.08,54.57,236.55,37.07z"/>
</g>
</svg>
