<?xml version="1.0" encoding="utf-8"?>
<!-- Generator: Adobe Illustrator 23.0.1, SVG Export Plug-In . SVG Version: 6.00 Build 0)  -->
<svg version="1.1" id="Capa_1" xmlns="http://www.w3.org/2000/svg" xmlns:xlink="http://www.w3.org/1999/xlink" x="0px" y="0px"
	 viewBox="0 0 300 300" style="enable-background:new 0 0 300 300;" xml:space="preserve">
<style type="text/css">
	.st0{display:none;fill:url(#SVGID_1_);}
	.st1{display:none;}
	.st2{display:inline;fill:url(#SVGID_2_);}
	.st3{display:inline;fill:url(#SVGID_3_);}
	.st4{display:inline;fill:url(#SVGID_4_);}
	.st5{display:none;fill:url(#SVGID_5_);}
	.st6{display:inline;fill:url(#SVGID_6_);}
	.st7{display:inline;}
	.st8{fill:#E3CBBC;}
	.st9{display:none;fill:url(#SVGID_7_);}
	.st10{display:inline;fill:#8FC7E3;}
	.st11{display:inline;fill:url(#SVGID_8_);}
	.st12{fill:#FDD01A;}
	.st13{fill:url(#SVGID_9_);}
</style>
<radialGradient id="SVGID_1_" cx="177.265" cy="96.1673" r="172.0948" gradientUnits="userSpaceOnUse">
	<stop  offset="0" style="stop-color:#F2935A"/>
	<stop  offset="1" style="stop-color:#9C4511"/>
</radialGradient>
<circle class="st0" cx="149.63" cy="151.63" r="148.37"/>
<g class="st1">
	<radialGradient id="SVGID_2_" cx="175.6291" cy="96.5352" r="165.8742" gradientUnits="userSpaceOnUse">
		<stop  offset="0" style="stop-color:#5AB0F2"/>
		<stop  offset="1" style="stop-color:#114D9C"/>
	</radialGradient>
	<circle class="st2" cx="148.99" cy="149.99" r="143.01"/>
	<radialGradient id="SVGID_3_" cx="198.9024" cy="80.9026" r="170.9649" gradientUnits="userSpaceOnUse">
		<stop  offset="0" style="stop-color:#9AFA87"/>
		<stop  offset="1" style="stop-color:#34A42D"/>
	</radialGradient>
	<path class="st3" d="M199.21,172.77c-8.9-5.52-30.08-25.16-38.36-29.77c-8.29-4.6-20.25-3.99-27.01-7.98
		c-6.75-3.99-16.88-6.75-19.95-13.2c-3.07-6.45,0-21.79-5.22-24.24c-5.22-2.46-20.25,7.67-25.47,5.83
		c-5.22-1.84-6.75-8.59-5.83-12.89c0.92-4.3,0.61-15.04,8.9-13.2c8.29,1.84,29.16,9.82,42.04,3.38
		c12.89-6.45,25.16-24.55,19.03-42.96c-4.93-14.78-26.23-19.48-39.38-24.71C83.99,20.19,62.7,33.5,45.83,51.1
		c-0.31,11.59-0.12,36.05,6.08,47.09c8.29,14.73,25.16,11.97,36.83,18.72c11.66,6.75,6.75,7.37,16.57,11.97
		c9.82,4.6,15.96,5.52,16.88,7.98c0.92,2.46-11.36,11.05-11.97,25.47c-0.61,14.42-0.52,29.15,12.02,39.9
		c12.53,10.74,11.61,19.64,6.4,34.37c-5.22,14.73-7.37,33.14-2.46,37.13c4.91,3.99,11.36,2.15,11.66-4.6
		c0.31-6.75,2.46-10.74,12.28-14.12c9.82-3.38,12.58-2.03,15.96-10.07c3.38-8.04,12.58-22.46,22.1-31.67
		c9.51-9.21,18.11-18.11,18.72-25.16C207.5,181.05,208.11,178.29,199.21,172.77z"/>
	<radialGradient id="SVGID_4_" cx="282.4324" cy="60.9818" r="60.2079" gradientUnits="userSpaceOnUse">
		<stop  offset="0" style="stop-color:#9AFA87"/>
		<stop  offset="1" style="stop-color:#34A42D"/>
	</radialGradient>
	<path class="st4" d="M236.55,37.07c-0.54,7.39-0.62,13.36-3.68,17.03c-4.09,4.91,7.77,17.2,15.96,23.74
		c8.19,6.54,15.15,8.59,18.01,20.46c2.86,11.86-9.42,20.04-6.96,25.37c2.46,5.32,12.28,10.22,17.19,0
		c2.44-5.07,5.38-11.77,8.1-17.32C276.26,78.56,259.08,54.57,236.55,37.07z"/>
</g>
<radialGradient id="SVGID_5_" cx="178.4172" cy="100.1183" r="167.6017" gradientUnits="userSpaceOnUse">
	<stop  offset="0" style="stop-color:#F25F5A"/>
	<stop  offset="1" style="stop-color:#9C1D11"/>
</radialGradient>
<circle class="st5" cx="151.5" cy="154.13" r="144.5"/>
<g class="st1">
	<radialGradient id="SVGID_6_" cx="176.4515" cy="98.9239" r="164.7018" gradientUnits="userSpaceOnUse">
		<stop  offset="0" style="stop-color:#F7C9AD"/>
		<stop  offset="1" style="stop-color:#A16847"/>
	</radialGradient>
	<circle class="st6" cx="150" cy="152" r="142"/>
	<g class="st7">
		<path class="st8" d="M107.63,50.51c28.8,0,28.8-5.95,57.6-5.95c28.81,0,28.81,7.52,57.62,7.52c13.94,0,21.12,0.04,28.1,0.09
			c-12.65-12.78-27.7-23.15-44.43-30.41c-14.11,0.97-19.32,3.04-41.35,3.04c-28.81,0-28.81,0.03-57.61,0.03
			c-8.09,0-13.87-0.36-18.69-0.85c-11.65,5.57-22.41,12.63-32.03,21.03C78.97,45.82,81.32,50.51,107.63,50.51z"/>
		<path class="st8" d="M50.01,89.53c28.81,0,28.81-3.53,57.62-3.53c28.8,0,28.8,9.32,57.6,9.32c28.81,0,28.81-6.72,57.62-6.72
			c26.79,0,28.69-3.77,52.01-4.3c-5.95-10.96-13.41-20.97-21.92-29.94c-7.69-0.66-14.87-1.36-30.17-1.36
			c-28.8,0-28.8,2.02-57.6,2.02c-28.81,0-28.81-1.02-57.61-1.02c-28.81,0-28.81,3.43-57.62,3.43c-2.03,0-3.89-0.01-5.66-0.01
			c-9.33,10.42-17.13,22.2-23.08,35.05C28.41,91.01,35.61,89.53,50.01,89.53z"/>
		<path class="st8" d="M222.77,127.65c-28.8,0-28.8-0.96-57.6-0.96c-28.81,0-28.81-2.68-57.61-2.68c-28.81,0-28.81,9.54-57.62,9.54
			c-21.11,0-26.78-4.2-39.62-6.44C8.88,135.2,8,143.49,8,152c0,1.17,0.15,2.3,0.18,3.45c14.46-0.05,19.56-0.15,41.83-0.15
			c28.81,0,28.81,0.58,57.62,0.58c28.8,0,28.8-4.82,57.6-4.82c28.81,0,28.81-5.36,57.62-5.36c28.8,0,28.8,5.81,57.6,5.81
			c4.5,0,8.23,0.11,11.54,0.3c-0.01-8.85-0.93-17.48-2.49-25.88c-2.71-0.09-5.7-0.14-9.12-0.14
			C251.58,125.79,251.58,127.65,222.77,127.65z"/>
		<path class="st8" d="M257.6,244.5c-9.83,0.11-16.52,0.28-34.84,0.28c-28.8,0-28.8,6.38-57.6,6.38c-28.81,0-28.81-6.46-57.61-6.46
			c-28.81,0-28.81,6.54-57.62,6.54c-0.5,0-0.93,0-1.42,0c11.74,12.01,25.63,21.84,41,29.09c4.71,0.47,10.35,0.8,18.11,0.8
			c28.8,0,28.8-1.22,57.6-1.22c28.52,0,28.85-5.59,56.82-5.71C235.48,266.29,247.49,256.26,257.6,244.5z"/>
		<path class="st8" d="M107.63,232.2c28.8,0,28.8,7.81,57.6,7.81c28.81,0,28.81,0.41,57.62,0.41c21.28,0,26.85-1.55,39.93-2.36
			c1.7-2.23,3.45-4.41,5.02-6.74c-17.03-1.09-21.19-4.26-45.03-4.26c-28.8,0-28.8-1.6-57.6-1.6c-28.81,0-28.81,4.42-57.61,4.42
			c-28.81,0-28.81,3.04-57.62,3.04c-7.45,0-12.95-0.54-17.54-1.33c1.73,2.55,3.63,4.96,5.52,7.38c3.44,0.15,7.34,0.24,12.09,0.24
			C78.82,239.22,78.82,232.2,107.63,232.2z"/>
		<path class="st8" d="M107.63,169.89c28.8,0,28.8,2.81,57.6,2.81c28.81,0,28.81-2.46,57.62-2.46c28.8,0,28.8,2.6,57.6,2.6
			c3.71,0,6.93,0.11,9.81,0.3c0.05-0.28,0.09-0.57,0.13-0.85c-2.92,0.02-6.2,0.03-10,0.03c-28.81,0-28.81-3.67-57.62-3.67
			c-28.8,0-28.8,0.28-57.6,0.28c-28.81,0-28.81-4.64-57.61-4.64c-28.81,0-28.81,1.1-57.62,1.1c-21.78,0-27.1,2.34-40.85,3.48
			c0.06,0.44,0.14,0.88,0.2,1.31c13.65,2.68,19,8.1,40.72,8.1C78.82,178.27,78.82,169.89,107.63,169.89z"/>
		<path class="st8" d="M107.63,215.06c28.8,0,28.8,1.95,57.6,1.95c28.81,0,28.81-6.66,57.62-6.66c27.73,0,28.84,3.75,54.57,4.03
			c3.68-7.51,6.75-15.36,9.07-23.53c-1.9,0.07-3.9,0.14-6.1,0.14c-28.81,0-28.81,1.37-57.62,1.37c-28.8,0-28.8-0.45-57.6-0.45
			c-28.81,0-28.81-6.13-57.61-6.13c-28.81,0-28.81-2.78-57.62-2.78c-19.97,0-26.11,2.09-37.58,3.37c2.24,9.02,5.33,17.68,9.21,25.92
			c7.08-0.02,14.28-0.04,28.43-0.04C78.82,212.26,78.82,215.06,107.63,215.06z"/>
		<path class="st8" d="M165.17,100.76c-28.81,0-28.81-3.8-57.61-3.8c-28.81,0-28.81,5.09-57.62,5.09c-16.38,0-23.45-1.38-31.79-2.58
			c-1.59,3.97-3.02,8.02-4.25,12.16c10.55,1.7,17.01,4.22,36.1,4.22c28.81,0,28.81,2.48,57.62,2.48c28.8,0,28.8-5.69,57.6-5.69
			c28.81,0,28.81,2.82,57.62,2.82c28.8,0,28.8-2.26,57.6-2.26c2.19,0,4.18,0.02,6.07,0.06c-1.62-5.73-3.49-11.36-5.78-16.77
			c-0.12,0-0.23-0.01-0.35-0.01c-28.81,0-28.81,8.95-57.62,8.95C193.96,105.44,193.96,100.76,165.17,100.76z"/>
	</g>
</g>
<radialGradient id="SVGID_7_" cx="152.2523" cy="135.5975" r="15.2403" gradientTransform="matrix(5.7191 0 0 5.7191 -706.9435 -684.5293)" gradientUnits="userSpaceOnUse">
	<stop  offset="0" style="stop-color:#5ADEF2"/>
	<stop  offset="1" style="stop-color:#11769C"/>
</radialGradient>
<circle class="st9" cx="149.8" cy="119.06" r="75.15"/>
<g class="st1">
	<path class="st10" d="M223.25,132.62c0.95-4.77,1.47-9.71,1.47-14.76c0-1.72-0.14-3.4-0.25-5.09c-16.7,7.3-43.01,15.76-73.12,23.04
		c-27.4,6.63-52.42,10.96-70.42,12.54c2.68,6.02,6.1,11.63,10.2,16.69c19.57-3.14,41.34-7.51,64.15-13.02
		C180.1,146,203.22,139.34,223.25,132.62z"/>
	<radialGradient id="SVGID_8_" cx="274.6738" cy="27.225" r="243.8596" gradientUnits="userSpaceOnUse">
		<stop  offset="0" style="stop-color:#5FEBF7"/>
		<stop  offset="1" style="stop-color:#156E80"/>
	</radialGradient>
	<path class="st11" d="M295.02,82.65c-2.15-8.9-34.51-9.25-80.46-2.37c1.01,1.73,1.93,3.51,2.79,5.32
		c15.34-1.21,25.12-0.29,25.94,3.11c1.79,7.43-39.37,23.74-91.95,36.47c-52.59,12.73-96.65,17.03-98.44,9.61
		c-0.82-3.4,7.45-8.68,21.63-14.62c-0.02-0.77-0.11-1.53-0.11-2.31c0-1.24,0.07-2.47,0.13-3.69c-43.99,14.89-72.59,30-70.44,38.89
		c3.15,13,70.8,7.78,151.15-11.67C235.6,121.95,298.17,95.65,295.02,82.65z"/>
</g>
<g>
	<g>
		<path class="st12" d="M271.34,166.01c-3.03-5.85-6.86-8.38-6.76-11.83c-0.11-4.18,3.45-4.75,6.27-3.71
			c2.82,1.05,6.59,0.45,8.46-3.48c-4.13,1.43-5.51-3.92-8.25-7.26c-4.15-5.11-8.41-6.79-9.06-10.18c-0.94-4.07,2.42-5.37,5.39-4.94
			c2.94,0.45,6.59-0.94,7.52-5.16c-1.86,1.14-3.42,0.45-4.92-0.84c-0.75-0.65-1.48-1.45-2.22-2.26c-0.79-0.8-1.59-1.61-2.43-2.29
			c-2.52-2.08-4.97-3.28-6.92-4.38c-1.92-1.11-3.35-2.11-4.08-3.67c-1.7-3.82,1.24-5.76,4.28-5.98c2.98-0.18,6.22-2.28,6.24-6.6
			c-1.58,1.51-3.25,1.15-4.96,0.19c-1.7-0.97-3.62-2.47-5.51-3.47c-5.9-2.95-10.42-2.78-12.44-5.58c-2.46-3.37-0.02-5.86,2.91-6.71
			c2.91-0.82,5.59-3.51,4.77-7.78c-2.47,3.57-6.77,0.08-10.92-1.02c-6.38-1.66-10.8-0.53-13.32-2.89c-3.16-2.74-1.21-5.76,1.45-7.16
			c2.65-1.37,4.77-4.63,3.05-8.59c-0.83,2.01-2.5,2.38-4.47,2.21c-0.99-0.08-2.04-0.3-3.13-0.52c-1.11-0.18-2.23-0.37-3.31-0.42
			c-3.26-0.2-5.96,0.27-8.17,0.51c-1.11,0.12-2.09,0.18-2.99,0.1c-0.91-0.05-1.73-0.24-2.48-0.68c-3.61-2.11-2.38-5.37-0.04-7.34
			c2.33-1.93,3.7-5.49,1.19-9.01c-0.4,2.15-1.96,2.84-3.9,3.06c-1.96,0.24-4.38,0.12-6.5,0.42c-3.24,0.5-5.79,1.55-7.88,2.19
			c-2.11,0.69-3.83,1.16-5.47,0.59c-3.97-1.28-3.46-4.73-1.58-7.14c1.87-2.38,2.46-6.12-0.72-9.1c0.1,4.33-5.43,4.05-9.44,5.59
			c-3.08,1.26-5.33,2.66-7.25,3.81c-1.93,1.16-3.51,1.92-5.22,1.7c-4.16-0.34-4.37-3.92-3.04-6.63c1.34-2.7,1.13-6.5-2.59-8.77
			c1,4.25-4.47,5.1-8.06,7.46c-5.51,3.6-7.63,7.67-11.07,7.94c-4.14,0.53-5.09-2.95-4.34-5.86c0.75-2.9-0.24-6.62-4.34-8.04
			c0.94,1.96,0.09,3.45-1.35,4.81c-1.44,1.36-3.5,2.56-5.01,4.14c-2.32,2.33-3.8,4.57-5.09,6.42c-1.29,1.83-2.46,3.08-4.08,3.67
			c-3.96,1.34-5.61-1.87-5.49-4.86c0.15-2.95-1.64-6.49-5.91-6.92c2.65,3.49-2.05,6.39-4.35,10.08c-1.81,2.7-2.72,5.33-3.63,7.33
			c-0.92,2-1.72,3.6-3.22,4.45c-1.83,1.03-3.27,0.87-4.34,0.1c-1.08-0.78-1.78-2.22-2.04-3.72c-0.52-2.99-2.91-5.93-7.23-5.53
			c1.67,1.42,1.49,3.1,0.71,4.9c-0.74,1.86-2.08,3.85-2.88,5.84c-1.14,3.11-1.56,5.77-2.03,7.93c-0.43,2.21-0.92,3.89-2.23,5.03
			c-3.06,2.85-5.84,0.62-6.97-2.19c-1.11-2.8-4.08-5.2-8.25-3.95c3.84,2.11,0.77,6.71,0.14,10.99c-0.5,3.25-0.38,5.93-0.34,8.18
			c0.03,2.24-0.17,3.94-1.15,5.37c-2.42,3.41-5.64,1.78-7.3-0.72c-1.62-2.48-5.12-4.28-8.84-2.13c4.19,1.27,2.1,6.38,2.39,10.71
			c0.38,6.58,2.77,10.42,1.37,13.57c-0.89,1.9-2.12,2.63-3.45,2.63c-1.33-0.01-2.75-0.76-3.83-1.82c-2.17-2.12-5.83-3.09-9.11-0.24
			c2.19,0.17,3.01,1.64,3.46,3.56c0.49,1.94,0.57,4.34,1.09,6.42c0.91,3.19,2.13,5.59,3.02,7.61c0.96,2.04,1.55,3.69,1.16,5.37
			c-0.81,4.1-4.35,3.94-6.92,2.33c-2.55-1.61-6.35-1.8-8.99,1.66c4.31-0.55,4.61,4.98,6.57,8.8c3.03,5.85,6.86,8.38,6.76,11.83
			c0.11,4.18-3.45,4.75-6.27,3.71c-2.82-1.05-6.59-0.45-8.46,3.48c4.13-1.43,5.51,3.92,8.25,7.26c4.15,5.11,8.41,6.79,9.06,10.18
			c0.94,4.07-2.42,5.37-5.39,4.94c-2.94-0.45-6.59,0.94-7.52,5.16c1.86-1.14,3.42-0.45,4.92,0.84c0.75,0.65,1.48,1.45,2.22,2.26
			c0.79,0.8,1.59,1.61,2.43,2.29c2.52,2.08,4.97,3.28,6.92,4.38c1.92,1.11,3.35,2.11,4.08,3.67c1.7,3.82-1.24,5.76-4.28,5.98
			c-2.98,0.18-6.22,2.28-6.24,6.6c1.58-1.51,3.25-1.15,4.96-0.19c1.7,0.97,3.62,2.47,5.51,3.47c5.9,2.95,10.42,2.78,12.44,5.58
			c2.46,3.37,0.02,5.86-2.91,6.71c-2.91,0.82-5.59,3.51-4.77,7.78c2.47-3.57,6.77-0.08,10.92,1.02c6.38,1.66,10.8,0.53,13.32,2.89
			c3.16,2.73,1.21,5.76-1.45,7.16c-2.65,1.37-4.77,4.63-3.05,8.59c0.83-2.01,2.5-2.38,4.47-2.21c0.99,0.08,2.04,0.3,3.13,0.52
			c1.11,0.18,2.23,0.37,3.31,0.42c3.26,0.2,5.96-0.27,8.17-0.51c1.11-0.12,2.09-0.18,2.99-0.1c0.91,0.05,1.73,0.24,2.48,0.68
			c3.61,2.11,2.38,5.37,0.04,7.34c-2.33,1.93-3.7,5.49-1.19,9.01c0.4-2.15,1.96-2.84,3.9-3.06c1.96-0.24,4.38-0.12,6.5-0.42
			c3.24-0.5,5.79-1.55,7.88-2.19c2.11-0.69,3.83-1.16,5.47-0.59c3.97,1.28,3.46,4.73,1.58,7.14c-1.87,2.37-2.46,6.12,0.72,9.1
			c-0.1-4.33,5.43-4.05,9.44-5.59c3.08-1.26,5.33-2.66,7.25-3.81c1.93-1.16,3.51-1.92,5.22-1.7c4.16,0.34,4.37,3.92,3.04,6.63
			c-1.34,2.7-1.13,6.5,2.59,8.77c-1-4.25,4.47-5.1,8.07-7.46c5.51-3.6,7.63-7.67,11.07-7.94c4.14-0.53,5.09,2.95,4.34,5.86
			c-0.75,2.9,0.24,6.62,4.34,8.04c-0.94-1.96-0.09-3.45,1.35-4.81c1.44-1.36,3.5-2.56,5.01-4.14c2.32-2.33,3.8-4.57,5.09-6.42
			c1.29-1.83,2.46-3.08,4.08-3.67c3.96-1.34,5.61,1.87,5.49,4.86c-0.15,2.95,1.64,6.49,5.91,6.92c-2.65-3.49,2.05-6.39,4.35-10.08
			c1.81-2.7,2.72-5.33,3.63-7.33c0.92-2,1.72-3.6,3.22-4.45c1.83-1.03,3.27-0.87,4.34-0.1c1.08,0.78,1.78,2.22,2.04,3.72
			c0.52,2.99,2.91,5.93,7.23,5.53c-1.67-1.42-1.49-3.1-0.71-4.9c0.74-1.86,2.08-3.85,2.88-5.84c1.14-3.11,1.56-5.77,2.03-7.93
			c0.43-2.21,0.92-3.89,2.23-5.02c3.06-2.85,5.84-0.62,6.97,2.18c1.11,2.8,4.08,5.2,8.25,3.95c-3.84-2.11-0.77-6.71-0.14-10.99
			c0.5-3.25,0.38-5.93,0.34-8.18c-0.03-2.24,0.17-3.94,1.15-5.37c2.42-3.41,5.64-1.78,7.3,0.72c1.62,2.48,5.12,4.28,8.84,2.13
			c-4.19-1.27-2.1-6.38-2.39-10.71c-0.38-6.58-2.77-10.42-1.37-13.57c0.89-1.9,2.12-2.63,3.45-2.63c1.33,0.01,2.75,0.76,3.83,1.82
			c2.17,2.12,5.83,3.09,9.11,0.24c-2.19-0.17-3.01-1.64-3.46-3.56c-0.49-1.94-0.57-4.34-1.09-6.42c-0.91-3.19-2.13-5.59-3.02-7.61
			c-0.96-2.04-1.55-3.69-1.16-5.37c0.81-4.1,4.35-3.94,6.92-2.33c2.55,1.61,6.35,1.8,8.99-1.66
			C273.6,175.37,273.3,169.84,271.34,166.01z"/>
		<linearGradient id="SVGID_9_" gradientUnits="userSpaceOnUse" x1="77.2893" y1="213.2529" x2="198.9139" y2="108.9229">
			<stop  offset="0" style="stop-color:#FFD61C"/>
			<stop  offset="1" style="stop-color:#EB8900"/>
		</linearGradient>
		<circle class="st13" cx="146.15" cy="154.18" r="111.84"/>
	</g>
</g>
</svg>
